<svg xmlns="http://www.w3.org/2000/svg" width="23" height="24" viewBox="0 0 23 24">
    <path fill="#E5BA21" fill-rule="evenodd" d="M11.5 24C5.149 24 0 18.627 0 12S5.149 0 11.5 0 23 5.373 23 12s-5.149 12-11.5 12zm5.907-16.375s1.31-1.183 1.27-1.71c0 0-1.514.711-1.846.743 0 0-.105-.113-.277-.262a4.452 4.452 0 0 0-.193-.159 2.676 2.676 0 0 0-.633-.368c-.482-.226-1.01-.282-1.53-.221a3.64 3.64 0 0 0-.22.033c-.86.144-1.597.704-2.06 1.467a2.407 2.407 0 0 0-.282.675 4.94 4.94 0 0 0-.091.431c-.048.312 0 1.323 0 1.323s-3.827.127-6.283-3.281c0 0-1.21 2.454.878 4.17 0 0-.425.204-1.227-.304 0 0-.399 1.87 2.188 3.153H5.843s.44 2.073 2.777 2.264c0 0-1.104 1.59-4.307 1.348 0 0 2.89 2.154 6.614 1.154a8.13 8.13 0 0 0 .2-.056c.59-.195 1.183-.424 1.722-.731l.141-.08c.142-.082.283-.17.426-.262 0 0 3.915-2.274 4.236-8.149 0 0 .823-.517 1.35-1.509 0 0-1.483.369-1.595.33z"/>
</svg>
