<?xml version="1.0" ?><!DOCTYPE svg  PUBLIC '-//W3C//DTD SVG 1.1//EN'  'http://www.w3.org/Graphics/SVG/1.1/DTD/svg11.dtd'><svg enable-background="new 0 0 512 512" id="Layer_1" version="1.1" viewBox="0 0 512 512" xml:space="preserve" xmlns="http://www.w3.org/2000/svg" xmlns:xlink="http://www.w3.org/1999/xlink"><circle cx="256" cy="256" fill="#77D4B6" id="ellipse" r="256"/><path d="M211.9,235.1l21.5,64.2l66.7-22.4l-21.5-64.2L211.9,235.1z M398,298.8l-32.4,10.8l11.2,33.5  c4.5,13.5-2.8,28.2-16.3,32.8c-3,1-5.9,1.4-8.9,1.3c-10.6-0.3-20.3-7.1-23.9-17.7L316.5,326l-66.7,22.4l11.2,33.5  c4.5,13.6-2.8,28.2-16.3,32.8c-3,1-5.9,1.4-8.9,1.3c-10.6-0.3-20.3-7.1-23.9-17.7l-11.2-33.5l-32.4,10.8c-3,1-6,1.4-8.9,1.3  c-10.6-0.3-20.3-7.1-23.9-17.7c-4.5-13.5,2.8-28.2,16.3-32.8l32.4-10.8l-21.5-64.2l-32.4,10.8c-3,1-5.9,1.4-8.9,1.3  c-10.6-0.3-20.3-7.1-23.9-17.7c-4.5-13.5,2.8-28.2,16.3-32.8l32.4-10.8L135,168.7c-4.5-13.6,2.8-28.2,16.3-32.8  c13.6-4.5,28.2,2.8,32.8,16.3l11.2,33.5l66.7-22.4l-11.2-33.5c-4.5-13.6,2.8-28.2,16.3-32.8c13.6-4.5,28.2,2.8,32.8,16.3l11.2,33.5  l32.4-10.8c13.6-4.5,28.2,2.8,32.8,16.3c4.5,13.6-2.8,28.2-16.3,32.8l-32.4,10.8l21.5,64.2l32.4-10.8c13.5-4.5,28.2,2.8,32.8,16.3  C418.9,279.6,411.6,294.2,398,298.8z" fill="#FFFFFF" id="logo"/></svg>