<svg xmlns="http://www.w3.org/2000/svg" height="320" width="363" viewBox="0 0 362 320">
  <path d="M161.3 251.5l5.3-22.8c-23-5.3-35.3-21.3-35.3-21.3l-17.5 15.3a89 89 0 0 0 47.5 28.8m-80.8 1.4L63 268.3s29 38.4 84.2 51.1l5.3-22.8s-41-7.4-72-43.7m-1.2-.2l17.1-15s-24.1-25.8-26.7-63.1l-22.7 2s1.1 40.5 32.3 76m-55.4-72.8l-23 2a178.4 178.4 0 0 0 44.3 101.7l17.2-15A155.2 155.2 0 0 1 24 179.8M65.7 96s-8.2-5.1-20-12.1c-30.7 53.3-21.8 94-21.8 94l23.3-1.8C43.5 126.3 65.7 96 65.7 96m71.6-34l9 21.1s55.3-26.4 101.3 23.4l17.2-15s-21.2-26.7-59-35.4l5.2-22.3c-46.3-10.7-82.6 7.3-82.6 7.3S87 57 65.7 95.7l19.1 11.2s21.4-34 52.5-44.8m-17.7-41.2l-9-20.9a177.2 177.2 0 0 0-84.3 72.1l19.6 11.7a158.3 158.3 0 0 1 73.6-63M316 154.4c4 48-18.6 80.9-18.6 80.9l38.8 23.4c33.1-55 25-108.3 25-108.3s-.8-53.5-43-102.4L301 63s34.4 37.4 37.7 89.3zm-59 56.3c16-26.2 12.2-53 12.2-53l-22.8 2c-2.3-23.5-16-37.3-16-37.3l-17.3 15a43.3 43.3 0 0 0-22.7-13.7l5.1-22.2c-51.2-9.3-71.2 30-71.2 30-12.3 20.6-9.1 39.4-9.1 39.4 1.6 22 16 37.3 16 37.3l17.2-15a43 43 0 0 0 36.2 14.7 42.8 42.8 0 0 0 13-3.3l27 63c38.6-17.2 51.8-45 51.8-45l-19.4-12s3.5 2.2 0 0" fill-rule="evenodd" fill="#E5BA21"/>
</svg>
