<svg xmlns="http://www.w3.org/2000/svg" height="359" width="236">
  <g style="mix-blend-mode:lighten" opacity=".1" fill="#e5ba21" fill-rule="evenodd">
    <path d="M93.9 21.9L77.9.2C17.2 42.8 0 105.6 0 105.6l26 8.4a187 187 0 0 1 68-92M52 122.6s-10.9-3.7-26.5-8.6c-21.4 69.5 0 114 0 114l26.5-8.3c-17.6-56.3 0-97.1 0-97.1m89.7-35.4S152 79 169 73.1c17-6 40.5-9.6 67-.6V44.3a133.2 133.2 0 0 0-32.6-4.3V13c-56.4 0-93.6 30.4-93.6 30.4S66.4 73 52 123.2l25 7.8s15.6-45 48.7-65.7zM25.9 230.4L0 238.7a210.5 210.5 0 0 0 78 105.2l16-21.6c-52-35.1-68.2-91.9-68.2-91.9M203 277v-27.7a77 77 0 0 1-46-15.3l-16 22.4c29.4 22.3 62 20.6 62 20.6m-91.9 23L95 322.4S138.7 359 206 359v-27.8s-49.3 2.5-94.9-31.2m-1.8 0l15.7-21.7S90.4 255.2 77.5 213L52 221.3s12 46.2 57.3 78.7m126.9-172.1l-2.1 2.8a51 51 0 0 0-29.9-9.7V94c-61.6 2.9-74.3 53.6-74.3 53.6a74 74 0 0 0 0 48 78.8 78.8 0 0 0 28.4 38.7l16-21.8a51.2 51.2 0 0 0 59.9 0l1.9 2.6"/>
  </g>
</svg>
