<svg xmlns="http://www.w3.org/2000/svg" height="485" width="557">
  <path d="M137.4 433.3l-6.2 46.9A366.3 366.3 0 0 0 358 442l-22.5-41.8c-97.5 52.5-198 33.1-198 33.1m18.9-139.9S29.2 281 .5 142.9H0v111.3c6.2 8 13.1 15.8 21 23.4L0 299.3v23.3a278 278 0 0 0 143.2 64.8s91 15.7 170.3-30l-22-40.5s-74.6 37.8-141.7 23.6l6.6-47.1zm156.9 64.1s9.2 17.8 23 43C447.6 338.8 475 256.6 475 256.6L431.6 235c-46.5 92.5-118.4 122.6-118.4 122.6m163.9-104.1l42.7 21.1a369.3 369.3 0 0 0 29.8-227.8l-46.5 7.9c22.6 107.2-26 198.7-26 198.7M291.4 0l-13.9 14.4c35 33.9 39.4 75.6 39.4 75.6l47.8-9C359.1 45 343 17.3 330 0m125.7 61.4l47.5-8.6S500.9 31.3 489.9 0h-52.2a273.9 273.9 0 0 1 18 61.4m0 2.8l-46.3 8s15.9 71.5-18.9 140.4l42.5 20.8s40.8-72.8 22.8-169.2M32.3 0c-6.4 8.7-12 18-16.7 27.8l42.9 21C37.5 93 47 132.3 47 132.3l46.8-8a90.2 90.2 0 0 0 26 48.7l-33 34.1C168.2 278.6 246 230 246 230c44-23.4 58.5-60.5 58.5-60.5 20.7-41 11.4-83.6 11.4-83.6l-46.9 8a89.8 89.8 0 0 0-75.5-73L196.4 0" opacity=".1" fill-rule="evenodd" fill="#E5BA21"/>
</svg>
