<svg xmlns:xlink="http://www.w3.org/1999/xlink" width="363" height="320">
  <defs>
    <path id="a" d="M.2.3h87.2v201.2H.2z"/>
    <path id="c" d="M0 .3h79.5v96.2H0z"/>
    <path id="e" d="M0 .2h79.4v96.2H.1z"/>
  </defs>
  <g fill="none" fill-rule="evenodd" opacity=".3">
    <g transform="rotate(13 -43.7 1361)">
      <mask id="b" fill="#fff">
        <use xlink:href="#a"/>
      </mask>
      <path fill="#E5BA21" d="M35.4 104.4c14.6 45.8 0 83 0 83l43.1 14.1c19.9-61.1 0-111.2 0-111.2s-12.8-51.9-65-90L.2 18.8S42.1 47.4 57 97.3l-21.6 7.1z" mask="url(#b)"/>
    </g>
    <path fill="#E5BA21" d="M257 210.7c16-26.2 12.2-53 12.2-53l-22.8 2c-2.3-23.5-16-37.3-16-37.3l-17.3 15a43.3 43.3 0 0 0-22.7-13.7l5.1-22.2c-51.2-9.3-71.2 30-71.2 30-12.3 20.6-9.1 39.4-9.1 39.4 1.6 22 16 37.3 16 37.3l17.2-15a43 43 0 0 0 36.2 14.7 42.8 42.8 0 0 0 13-3.3l27 63c38.6-17.2 51.8-45 51.8-45l-19.4-12s3.5 2.2 0 0"/>
    <path fill="#E5BA21" d="M161.3 251.5l5.3-22.8c-23-5.3-35.3-21.3-35.3-21.3l-17.5 15.3a89 89 0 0 0 47.5 28.8m-80.8 1.4L63 268.3s29 38.4 84.2 51.1l5.3-22.8s-41-7.4-72-43.7m-1.2-.2l17.1-15s-24.1-25.8-26.7-63.1l-22.7 2s1.1 40.5 32.3 76"/>
    <g transform="rotate(13 -764.9 98.8)">
      <mask id="d" fill="#fff">
        <use xlink:href="#c"/>
      </mask>
      <path fill="#E5BA21" d="M21.9.3L0 7.3c19.3 59.5 66 89.2 66 89.2L79.4 78C35.7 48.4 21.9.3 21.9.3" mask="url(#d)"/>
    </g>
    <path fill="#E5BA21" d="M65.7 96s-8.2-5.1-20-12.1c-30.7 53.3-21.8 94-21.8 94l23.3-1.8C43.5 126.3 65.7 96 65.7 96m71.6-34l9 21.1s55.3-26.4 101.3 23.4l17.2-15s-21.2-26.7-59-35.4l5.2-22.3c-46.3-10.7-82.6 7.3-82.6 7.3S87 57 65.7 95.7l19.1 11.2s21.4-34 52.5-44.8"/>
    <g transform="rotate(13 89 196)">
      <mask id="f" fill="#fff">
        <use xlink:href="#e"/>
      </mask>
      <path fill="#E5BA21" d="M79.4 18.5L65.9.2A177.2 177.2 0 0 0 0 89.4l21.8 7a158.3 158.3 0 0 1 57.5-77.9" mask="url(#f)"/>
    </g>
  </g>
</svg>
