<svg id="Layer_1" data-name="Layer 1" xmlns="http://www.w3.org/2000/svg" viewBox="0 0 537.53 615.31"><title>BlackFist_CodeInlay</title><rect x="338.82" y="245.58" width="120.39" height="67.06" transform="translate(-80.49 363.9) rotate(-45)"/><polygon points="293.58 259.23 271.68 250.62 261.43 260.87 308.85 308.28 411.14 206 363.72 158.58 313.37 208.93 293.58 259.23"/><path d="M207.55,521.56,195,525.47a71.93,71.93,0,0,1-2.65-10.06c0,18.86,0,36.75,0,49.82H237.1C213.5,546.13,207.55,521.56,207.55,521.56Z"/><path d="M207.55,521.56l12.6-3.91c-8.29-26.15.58-47.92.58-47.92l-12.5-4.24S197.79,492.65,207.55,521.56Z"/><path d="M370.48,565.23H396c0-9.3,0-27.83,0-48.75a70.84,70.84,0,0,1-3.33,11.59S387.56,546.81,370.48,565.23Z"/><polygon points="324.31 537.16 324.31 537.15 324.3 537.15 324.31 537.16"/><path d="M323.9,536.57l-.15-.22.17.25Z"/><path d="M324.36,537.22l-.05-.06Z"/><path d="M435.11,304l-54.95,54.94L326,304.72l-17.11,17.11-54.21-54.21-13.77,13.76L191.51,232l-6.25,6.19-5.15-8.38,18.44-18.28,89.62,35.26L316,176.09,169.66,118.51,63.82,243.43l128.3,172.79s.06,26.15.11,57.93a98.68,98.68,0,0,1,3.5-12.9l12.5,4.24s5-23.61,33.56-44.94l-7.58-10.75s25.17-19.89,61.32-19.09c-.13,9.61-.18,13.2-.18,13.2s-28.37-1.56-53.56,16.64c4.49,6.35,7.53,10.89,7.53,10.89,20.27-15.42,45.86-14.32,45.86-14.32s23.39-1,45.39,15.39l-7.89,10.58a65.73,65.73,0,0,1,22.92,32.5L343,479.48c-12.7-37.05-48.15-36-48.15-36l.17-13.21c-19-1.55-38.2,11.49-38.2,11.49l-7.49-10.36s-18.69,11.09-28.59,38.29l12.5,4.25c-7.32,20.43-.49,39.76-.49,39.76l-12.59,3.91a78.11,78.11,0,0,0,27.61,39.16l-6.28,8.42H344.05L338.92,558s19.69-12.14,28.69-38.37l12.5,4.24c10.31-28.28.69-56.06.69-56.06l12.6-3.91c1,3.27,1.84,6.47,2.49,9.6,0-30.89-.07-57.1-.07-57.1ZM323.75,536.35l.15.22.41.58.05.07,6.88,9.88s-13.49,11.75-37.9,11.91c.2-15.29.49-37.53.52-39.61A24.63,24.63,0,0,1,270.56,502l-12.62,3.92a37.79,37.79,0,0,0,13.52,19.16l-7.9,10.58a50.86,50.86,0,0,1-18.22-25.82l12.6-3.92a38.5,38.5,0,0,1,.29-23.45s2.73-10.74,14-18.77c0,0,19.76-16.21,44.59.56-3.2,4.3-5.86,7.86-7.9,10.59a24.81,24.81,0,0,1,8.8,12.5l12.62-3.92a38,38,0,0,1-.28,23.44l12.5,4.24A50.85,50.85,0,0,1,323.75,536.35Z"/><polygon points="328.42 170.68 322.19 186.52 356.93 151.78 309.51 104.36 267.25 146.62 328.42 170.68"/><polygon points="198.31 225.28 240.87 267.83 261.93 246.78 200.86 222.75 198.31 225.28"/><polygon points="302.83 97.5 255.41 50.09 189.48 116.02 257.54 142.79 302.83 97.5"/></svg>