<svg id="Layer_1" data-name="Layer 1" xmlns="http://www.w3.org/2000/svg" viewBox="0 0 518.37 356.41"><defs><style>.cls-1{fill:#fff;}</style></defs><title>NoFist_WhiteOutline</title><path class="cls-1" d="M217.15,315.25H158.43l-23.34-29.34V166.19h82.06v41H175V217h42.11v35.7H175v21.57h42.11Zm-56.34-4.94h51.4v-31.1h-42.1V247.76h42.1V221.94h-42.1V202.22h42.1V171.13H140V284.19Z"/><path class="cls-1" d="M282.43,315.25H226.17V166.19h88.41l21.14,32.59-19.86,24.44,24.7,21.46Zm-51.32-4.94h49l53.6-65.06L309,223.81l20.61-25.36L311.9,171.13H231.11Zm30.28-28V197.77H291l-25.38,28.95h44.18Zm4.94-50.68v37.48l32.59-37.48Zm0-28.94v15.66l13.74-15.66Z"/><path class="cls-1" d="M504.25,353.79l-69.2-39.46,0-225H415.45V151.9H375.5V43.81H358.3v-41h57.15V53.65H435V2.84H475V53.65h23.37L475,84.48,475,290.81l29.24,16.45ZM440,311.46l59.32,33.83V310.14L470.07,293.7l0-210.88,18.36-24.23H470V7.78H439.94V58.59H410.51V7.78H363.23V38.87h17.21V147h30.07V84.41h29.43Z"/><path class="cls-1" d="M426,315.25H344V166.19H426v41H383.92V217H426v35.7H383.92v21.57H426Zm-77.12-4.94h72.18v-31.1H379V247.76h42.11V221.94H379V202.22h42.11V171.13H348.91Z"/><path class="cls-1" d="M230.27,151.9H213.53L173.47,116l-22.08,29.71L119,117.75l23.72-29.92-18.79-17L150.08,38,168.4,54.53,208.2,2.84h46.19V113ZM215.42,147h12.1l21.93-35.4V7.78H210.63l-41.58,54L150.67,45.2l-20,25.08,18.78,17L125.8,117.11l24.79,21.36,22.15-29.8Zm4-39.52L192.17,82.7l27.21-36ZM198.83,82.09l15.61,14.19V61.45Z"/><path class="cls-1" d="M334.31,151.9H240.26l26.39-41h45.71l-54.3-73.86L277.13,2.84h76.19v41H314.08l49.74,66.52Zm-85-4.94h82.45l25.95-36.56L304.22,38.87h44.16V7.78H280L263.91,36.71l58.21,79.16H269.34Z"/><path class="cls-1" d="M116.48,352.62l-59.64-73v35.62H16.89V2.84h40V29.36H76.39V2.84h40V29.36h23.54L116.35,60.19V151.9h-40V65.06H56.84V188.77l19.33-24.09,58.15,74.41-32.56,26.29L148,322.93ZM51.9,265.78,117,345.39l24.33-22.92L94.82,264.64l32.62-26.34L76.12,172.64,51.9,202.81V60.12H81.33V147h30.08V58.53l18.5-24.23h-18.5V7.78H81.33V34.3H51.9V7.78H21.82V310.31H51.9Zm41.14-21H50.26l21.52-27.1Zm-32.55-4.94H82.9L71.76,225.68Z"/></svg>