<svg xmlns="http://www.w3.org/2000/svg" width="36" height="36" viewBox="0 0 23 24">
    <path fill="#E5BA21" fill-rule="evenodd" d="M11.5 24C5.149 24 0 18.627 0 12S5.149 0 11.5 0 23 5.373 23 12s-5.149 12-11.5 12zm.114-17.25v1.563h1.512V6.75h-1.512zm0 1.875v1.563h1.512V8.624h-1.512zm0 1.875v1.563h1.512V10.5h-1.512zM9.799 8.625v1.563h1.512V8.624H9.8zm0 1.875v1.563h1.512V10.5H9.8zM7.985 8.625v1.563h1.512V8.624H7.985zm0 1.875v1.563h1.512V10.5H7.985zm-1.815 0v1.563h1.512V10.5H6.17zm7.258 0v1.563h1.513V10.5h-1.513zm5.804 1.39c-.042-.029-.906-.593-1.723-.458-.198-.856-.958-1.389-.995-1.414l-.21-.145-.176.188a.813.813 0 0 0-.106.155c-.136.245-.333.793-.224 1.806a.335.335 0 0 1-.076.257.271.271 0 0 1-.208.096H4.961v.313C4.96 17.482 8.345 18 9.799 18c3.746 0 6.35-2.351 7.487-4.423 1.497-.247 2.016-1.219 2.043-1.265l.148-.26-.245-.163z"/>
</svg>
