<svg xmlns="http://www.w3.org/2000/svg" xmlns:xlink="http://www.w3.org/1999/xlink" width="36" height="36" viewBox="0 0 23 24">
    <defs>
        <path id="a" d="M0 0h23v24H0z"/>
    </defs>
    <g fill="none" fill-rule="evenodd">
        <mask id="b" fill="#fff">
            <use xlink:href="#a"/>
        </mask>
        <path fill="#E5BA21" d="M11.5 0C5.15 0 0 5.51 0 12.305c0 5.435 3.295 10.047 7.865 11.674.575.112.785-.267.785-.593 0-.292-.01-1.066-.015-2.093-3.2.744-3.874-1.649-3.874-1.649-.523-1.421-1.277-1.8-1.277-1.8-1.044-.763.079-.747.079-.747 1.154.086 1.761 1.267 1.761 1.267 1.026 1.88 2.691 1.338 3.347 1.023.105-.796.401-1.338.73-1.645-2.553-.31-5.238-1.366-5.238-6.081 0-1.343.448-2.442 1.184-3.302-.119-.311-.513-1.562.112-3.255 0 0 .966-.332 3.163 1.26A10.34 10.34 0 0 1 11.5 5.95c.976.005 1.96.142 2.879.414 2.195-1.592 3.159-1.26 3.159-1.26.627 1.693.233 2.944.114 3.255.737.86 1.183 1.959 1.183 3.302 0 4.726-2.69 5.766-5.251 6.072.413.379.78 1.13.78 2.278 0 1.645-.014 2.972-.014 3.375 0 .329.207.712.791.591C19.707 22.347 23 17.74 23 12.305 23 5.509 17.85 0 11.5 0" mask="url(#b)"/>
    </g>
</svg>
