<svg xmlns="http://www.w3.org/2000/svg" width="23" height="24" viewBox="0 0 23 24">
    <path fill="#E5BA21" fill-rule="evenodd" d="M11.5 24C5.149 24 0 18.627 0 12S5.149 0 11.5 0 23 5.373 23 12s-5.149 12-11.5 12zm4.636-7.74c-.528.658-1.206 1.104-1.963 1.428a5.176 5.176 0 0 1-1.683.386 8.9 8.9 0 0 1-2.49-.146c-.618-.13-1.21-.346-1.798-.58-.022-.008-.041-.025-.073-.045l.2-.234c.236-.275.44-.572.6-.903.18-.374.186-.738.012-1.123-.707-1.573-.416-3.493.71-4.775.736-.837 1.643-1.334 2.723-1.46 2.314-.27 4.413 1.332 4.751 3.756.193 1.379-.128 2.621-.99 3.695zm2.377-3.982a5.905 5.905 0 0 0-1.424-3.105 5.742 5.742 0 0 0-2.086-1.526c-.15-.065-.15-.064-.084-.222.113-.278.276-.52.477-.736a3.635 3.635 0 0 1 1.275-.864c.037-.015.074-.033.138-.063-.068-.038-.108-.062-.15-.082-.574-.278-1.168-.5-1.774-.688a12.397 12.397 0 0 0-3.552-.576c-.405-.004-.812.02-1.215.06-.547.05-1.09.135-1.613.323-1.104.395-2.011 1.09-2.76 2.01-.955 1.173-1.398 2.537-1.32 4.078.046.922.296 1.782.744 2.578a5.626 5.626 0 0 0 2.249 2.223c.12.065.129.089.072.217-.11.252-.26.477-.445.676-.438.47-.977.76-1.57.954-.037.012-.073.027-.114.043.014.02.018.03.025.035.035.024.07.046.106.067a13.94 13.94 0 0 0 3.461 1.42 11 11 0 0 0 2.205.37c.515.028 1.033.02 1.549 0 .405-.014.809-.07 1.203-.183 1.335-.382 2.45-1.138 3.332-2.238 1.108-1.382 1.522-2.99 1.271-4.771z"/>
</svg>
