<svg xmlns="http://www.w3.org/2000/svg" width="23" height="24" viewBox="0 0 23 24">
    <path fill="#E5BA21" fill-rule="nonzero" d="M11.5 24C5.149 24 0 18.627 0 12S5.149 0 11.5 0 23 5.373 23 12s-5.149 12-11.5 12zm-.448-8.466a1341.212 1341.212 0 0 0 3.225 2.458c.608.465 1.13.265 1.288-.502.666-3.225 1.328-6.455 1.99-9.68.082-.409.185-.818.226-1.232.063-.65-.383-.975-.964-.743-3.05 1.213-6.099 2.43-9.148 3.643-1.203.479-2.405.953-3.603 1.44a1.927 1.927 0 0 0-.572.368c-.18.167-.154.395.05.534.13.093.283.154.432.205.972.32 1.954.637 2.932.943.126.042.184.103.225.233.414 1.333.838 2.663 1.252 3.992.059.18.162.264.347.274.275.014.486-.093.676-.284.545-.548 1.09-1.096 1.644-1.65zm-2.298.98l-.635-2.012c-.157-.507-.31-1.013-.482-1.515-.05-.149-.027-.219.104-.302l6.882-4.475c.108-.07.221-.144.343-.177.09-.023.193.019.292.028-.045.084-.072.186-.135.246a935.056 935.056 0 0 1-3.117 2.905c-.936.873-1.878 1.752-2.82 2.62a.56.56 0 0 0-.184.391c-.058.73-.126 1.464-.194 2.194-.004.027-.013.055-.018.088-.013.004-.022.004-.036.01z"/>
</svg>
