<?xml version="1.0" encoding="utf-8"?>
<!-- Generator: Adobe Illustrator 22.0.1, SVG Export Plug-In . SVG Version: 6.00 Build 0)  -->
<svg version="1.1" id="Layer_1" xmlns="http://www.w3.org/2000/svg" xmlns:xlink="http://www.w3.org/1999/xlink" x="0px" y="0px"
	 viewBox="0 0 223 200" style="enable-background:new 0 0 223 200;" xml:space="preserve">
<style type="text/css">
	.st0{fill:#2ED7A2;}
	.st1{fill:#2972FF;}
</style>
<title>decred - logo - primary - positive - full color</title>
<g id="_Group_">
	<g id="_Group_2">
		<path id="_Path_" class="st0" d="M106.5,111.3h31.4c11.7,0,21.2-9.5,21.2-21.2s-9.5-21.2-21.2-21.2h-10l-21.4-18.6h31.4
			c22,0,39.8,17.8,39.8,39.8c0,16.2-9.8,30.7-24.8,36.8l24.8,21.5h-28.4L106.5,111.3z"/>
	</g>
	<g id="_Group_3">
		<path id="_Path_2" class="st1" d="M121.8,87.5H90.4c-11.7,0-21.2,9.5-21.2,21.2c0,11.7,9.5,21.2,21.2,21.2h10l21.4,18.6H90.4
			c-22,0-39.8-17.8-39.8-39.8c0-16.2,9.8-30.7,24.8-36.8L50.6,50.3H79L121.8,87.5z"/>
	</g>
</g>
</svg>
