<?xml version="1.0" encoding="UTF-8" standalone="no"?>
<!DOCTYPE svg PUBLIC "-//W3C//DTD SVG 1.1//EN" "http://www.w3.org/Graphics/SVG/1.1/DTD/svg11.dtd">
<svg version="1.1" xmlns="http://www.w3.org/2000/svg" xmlns:xlink="http://www.w3.org/1999/xlink" preserveAspectRatio="xMidYMid meet" viewBox="-1.0000000000000178 -1 614.960690083835 312.47838940011826" width="610.96" height="308.48"><defs><path d="M232.03 145.43L280.76 207.78L251.75 231.21L293.01 282.56L268.14 305.98L212.63 238.07L212.63 273.75L181.46 273.75L181.46 196.75L204.86 127.12L212.63 119.35L212.63 169.58L232.03 145.43ZM213.52 211.03L213.53 211.04L213.54 211.03L242.55 211.03L228.13 192.66L213.54 211.03L213.52 211.03Z" id="d1SQ65oNks"></path><path d="M362.71 145.43L362.71 177.51L317.87 177.51L317.87 190.66L362.71 190.66L362.71 218.04L317.87 218.04L317.87 241.65L362.71 241.65L362.71 273.73L292.47 273.73L286.7 266.56L286.7 145.43L355.39 145.43" id="c3HrXY7rTW"></path><path d="M442.38 194.26L464.37 213.37L414.63 273.73L367.78 273.73L367.78 145.43L443.1 145.43L460.4 172.09L442.38 194.26ZM399.14 240.8L435.18 199.36L399.14 199.36L399.14 240.8ZM399.14 195.57L418.46 173.54L399.14 173.54L399.14 195.57Z" id="b4FledVQzy"></path><path d="M584.92 145.43L584.92 255.46L610.96 270.11L610.96 308.48L553.72 275.85L553.72 145.43L584.89 145.43" id="a1ixy7Q7s1"></path><path d="M548.68 145.43L548.68 177.51L503.84 177.51L503.84 190.66L548.69 190.66L548.69 218.04L503.84 218.04L503.84 241.65L548.69 241.65L548.69 273.73L472.66 273.73L472.66 145.43L541.32 145.43" id="aXDHowvlL"></path><path d="M376.16 128.3L355.18 128.3L318.31 95.32L298.62 121.8L273.17 99.87L294.26 73.21L270.07 50.61L290.44 24.63L314.46 47.05L350.68 0L388.51 0L388.51 109.06L376.16 128.3ZM354.81 80.22L354.81 51.01L341.7 68.3L354.81 80.22Z" id="b39SxGmNtT"></path><path d="M584.88 0L584.88 45.23L603.46 45.23L584.88 69.74L584.88 128.3L553.71 128.3L553.71 72.62L531.9 72.62L531.9 128.3L500.73 128.3L500.73 32.08L489.28 32.08L489.28 0L531.97 0L531.97 45.23L553.71 45.23L553.71 0L584.88 0" id="f2IbdIWht"></path><path d="M484.18 0L484.18 32.08L439.46 32.08L485.4 93.53L460.72 128.3L382.13 128.3L401.65 97.99L448.38 97.99L396.55 28.14L412.22 0L476.55 0" id="aLO1BeydM"></path><path d="M265.61 0L265.61 26.36L282.76 26.36L265.61 48.09L265.61 128.28L234.44 128.28L234.44 51.01L212.63 51.01L212.63 104.98L181.46 73.81L181.46 0L212.63 0L212.63 23.62L234.44 23.62L234.44 0L265.61 0" id="d8kAyQT5V"></path><path d="M187.48 87.1L212.59 112.21L167.5 157.3L142.39 132.19L187.48 87.1" id="aulHc1zx7"></path><path d="M158.8 58.36L183.91 83.48L129.74 137.65L104.62 112.54L110.05 107.1L121.7 111.67L132.18 85.03L158.85 58.36" id="ar6dNVSxB"></path><path d="M56.02 37.14L133.52 67.64L118.79 105.09L71.32 86.42L61.55 96.12L64.32 100.54L67.62 97.26L93.76 123.45L101.05 116.16L129.77 144.88L138.83 135.81L167.53 164.51L196.64 135.41C184.13 171.09 177.19 190.92 175.8 194.88C175.8 194.88 175.89 258.31 175.89 273.73C165.1 273.73 78.82 273.73 68.03 273.73C68.03 249.7 67.92 194.81 67.92 194.81C63.39 188.71 40.75 158.21 0 103.3L56.02 37.14" id="b1QVldG67l"></path><path d="M130.09 29.66L155.2 54.77L136.77 73.2L140.06 64.82L107.71 52.02L130.09 29.66" id="a6Q2G14cOt"></path><path d="M72.54 92.35L104.88 105.08L93.73 116.23L71.2 93.7L72.54 92.36" id="aGrtCKLsQ"></path><path d="M101.44 0.9L126.55 26.01L102.56 50.04L66.52 35.82L101.45 0.89" id="b2a0J1WvEm"></path></defs><g><g><use xlink:href="#d1SQ65oNks" opacity="1" fill="#e7bb21" fill-opacity="1"></use></g><g><use xlink:href="#c3HrXY7rTW" opacity="1" fill="#e7bb21" fill-opacity="1"></use></g><g><use xlink:href="#b4FledVQzy" opacity="1" fill="#e7bb21" fill-opacity="1"></use></g><g><use xlink:href="#a1ixy7Q7s1" opacity="1" fill="#e7bb21" fill-opacity="1"></use></g><g><use xlink:href="#aXDHowvlL" opacity="1" fill="#e7bb21" fill-opacity="1"></use></g><g><use xlink:href="#b39SxGmNtT" opacity="1" fill="#e7bb21" fill-opacity="1"></use></g><g><use xlink:href="#f2IbdIWht" opacity="1" fill="#e7bb21" fill-opacity="1"></use></g><g><use xlink:href="#aLO1BeydM" opacity="1" fill="#e7bb21" fill-opacity="1"></use></g><g><use xlink:href="#d8kAyQT5V" opacity="1" fill="#e7bb21" fill-opacity="1"></use></g><g><use xlink:href="#aulHc1zx7" opacity="1" fill="#e7bb21" fill-opacity="1"></use></g><g><use xlink:href="#ar6dNVSxB" opacity="1" fill="#e7bb21" fill-opacity="1"></use></g><g><use xlink:href="#b1QVldG67l" opacity="1" fill="#e7bb21" fill-opacity="1"></use></g><g><use xlink:href="#a6Q2G14cOt" opacity="1" fill="#e7bb21" fill-opacity="1"></use></g><g><use xlink:href="#aGrtCKLsQ" opacity="1" fill="#e7bb21" fill-opacity="1"></use></g><g><use xlink:href="#b2a0J1WvEm" opacity="1" fill="#e7bb21" fill-opacity="1"></use></g></g></svg>