<svg id="Layer_1" data-name="Layer 1" xmlns="http://www.w3.org/2000/svg" viewBox="0 0 537.53 615.31"><defs><style>.cls-1{fill:#fff;}</style></defs><title>WhiteOutlineFist</title><path class="cls-1" d="M417.89,220.74,463,265.89,382,346.94l-45.15-45.15,81.05-81.05m0-12.9-6.45,6.45-81.05,81-6.45,6.45,6.45,6.45,45.15,45.15,6.45,6.45,6.45-6.45,81.05-81.05v-12.9l-45.15-45.15-6.45-6.45Z"/><path class="cls-1" d="M366.33,169.08l45.15,45.15-97.39,97.39-45.15-45.15,9.76-9.76,20.85,8.21L318.39,217l47.94-47.95m0-12.89-6.45,6.44-47.94,48-1.34,1.34-.7,1.77-15.5,39.4L282,248.23,276.48,246l-4.23,4.22L262.49,260,256,266.47l6.45,6.45,45.15,45.15,6.45,6.45,6.45-6.45,97.39-97.39,6.45-6.45-6.45-6.45-45.15-45.14-6.45-6.45Z"/><path class="cls-1" d="M181.57,130.94l139.32,54.82L294.4,253.09l-85.33-33.57-17.55,17.4,4.9,8,5.94-5.89,47,47,13.11-13.11,51.62,51.62,16.29-16.29L382,359.84l52.31-52.31-37.4,107s.15,114,.14,141.74H203.16c0-43.19-.21-141.88-.21-141.88L80.79,249.87,181.57,130.94m-2.74-10.88-4.22,5L73.83,244l-4.68,5.52,4.32,5.81,120.37,162.1c0,16.84.2,100.14.2,138.85v9.12H406.16v-9.12c0-25.82-.12-126.48-.14-140.2l36.89-105.53,13.17-37.69-28.23,28.24L382,346.94l-45.16-45.16-6.45-6.45-6.45,6.45-9.84,9.84-45.17-45.17L262.47,260,256,266.45l-6.66,6.66-40.52-40.52,2.43-2.41,79.79,31.4,8.49,3.34,3.34-8.49,26.49-67.34,3.34-8.48-8.49-3.34L184.91,122.45l-6.08-2.39Z"/><path class="cls-1" d="M314.72,117.46l45.14,45.15-33.07,33.07,5.93-15.07-58.24-22.92,40.24-40.23m0-12.9L308.27,111,268,151.25l-9.85,9.84,13,5.09,49.74,19.58-2.59,6.58-16,40.77,31-31,33.07-33.07,6.45-6.45-6.45-6.45L321.17,111l-6.45-6.45Z"/><path class="cls-1" d="M211.27,230.18l58.14,22.88-20.05,20.05-40.52-40.52,2.43-2.41m-2.2-10.66-4.22,4.18-2.43,2.41-6.51,6.45,6.48,6.48,40.52,40.52,6.45,6.45,6.45-6.45,20.05-20.05,9.84-9.84-12.95-5.1-58.14-22.88-5.54-2.17Z"/><path class="cls-1" d="M263.21,65.79l45.15,45.14-43.13,43.13-64.79-25.5,62.77-62.77m0-12.9-6.45,6.45L194,122.11,184.15,132l12.95,5.1,64.8,25.49,5.56,2.19,4.22-4.23,43.12-43.12,6.45-6.44-6.45-6.45L269.66,59.34l-6.45-6.45Z"/></svg>