<svg id="Layer_1" data-name="Layer 1" xmlns="http://www.w3.org/2000/svg" viewBox="0 0 537.53 615.31"><defs><style>.cls-1{fill:#e7bb21;}</style></defs><title>YellowFist_CodeInlay</title><rect class="cls-1" x="344.45" y="245.58" width="120.39" height="67.06" transform="translate(-78.84 367.87) rotate(-45)"/><polygon class="cls-1" points="299.2 259.23 277.31 250.62 267.06 260.87 314.48 308.28 416.76 206 369.35 158.58 318.99 208.93 299.2 259.23"/><path class="cls-1" d="M213.17,521.56l-12.6,3.91a73.71,73.71,0,0,1-2.65-10.06c0,18.86,0,36.75,0,49.82h44.76C219.13,546.13,213.17,521.56,213.17,521.56Z"/><path class="cls-1" d="M213.17,521.56l12.6-3.91c-8.28-26.15.58-47.92.58-47.92l-12.5-4.24S203.42,492.65,213.17,521.56Z"/><path class="cls-1" d="M376.11,565.23H401.6c0-9.3,0-27.83,0-48.75a71.35,71.35,0,0,1-3.34,11.59S393.18,546.81,376.11,565.23Z"/><polygon class="cls-1" points="329.94 537.16 329.93 537.15 329.93 537.15 329.94 537.16"/><path class="cls-1" d="M329.53,536.57a2.1,2.1,0,0,1-.15-.22l.16.25Z"/><path class="cls-1" d="M330,537.22l0-.06Z"/><path class="cls-1" d="M440.73,304l-54.94,54.94-54.21-54.2-17.1,17.11-54.22-54.21L246.5,281.38,197.13,232l-6.24,6.19-5.15-8.38,18.44-18.28,89.62,35.26,27.82-70.72L175.29,118.51,69.44,243.43,197.75,416.22s.05,26.15.11,57.93a98.6,98.6,0,0,1,3.49-12.9l12.5,4.24s5-23.61,33.56-44.94l-7.57-10.75s25.17-19.89,61.31-19.09c-.12,9.61-.17,13.2-.17,13.2s-28.37-1.56-53.57,16.64c4.5,6.35,7.54,10.89,7.54,10.89,20.27-15.42,45.86-14.32,45.86-14.32s23.39-1,45.39,15.39l-7.9,10.58a65.71,65.71,0,0,1,22.93,32.5l-12.61,3.89c-12.71-37.05-48.16-36-48.16-36l.17-13.21c-19-1.55-38.2,11.49-38.2,11.49L255,431.44s-18.7,11.09-28.6,38.29l12.5,4.25c-7.32,20.43-.48,39.76-.48,39.76l-12.6,3.91a78.16,78.16,0,0,0,27.62,39.16l-6.29,8.42H349.68L344.54,558s19.7-12.14,28.69-38.37l12.5,4.24c10.31-28.28.69-56.06.69-56.06l12.6-3.91c1,3.27,1.84,6.47,2.5,9.6,0-30.89-.07-57.1-.07-57.1ZM329.38,536.35s.06.1.15.22l.4.58.05.07,6.89,9.88S323.38,558.85,299,559c.2-15.29.49-37.53.52-39.61A24.63,24.63,0,0,1,276.19,502l-12.62,3.92a37.73,37.73,0,0,0,13.51,19.16l-7.9,10.58A50.86,50.86,0,0,1,251,509.83l12.61-3.92a38.54,38.54,0,0,1,.28-23.45s2.73-10.74,14-18.77c0,0,19.77-16.21,44.6.56l-7.91,10.59a24.82,24.82,0,0,1,8.81,12.5L336,483.42a38,38,0,0,1-.29,23.44l12.5,4.24A50.79,50.79,0,0,1,329.38,536.35Z"/><polygon class="cls-1" points="334.04 170.68 327.81 186.52 362.55 151.78 315.14 104.36 272.88 146.62 334.04 170.68"/><polygon class="cls-1" points="203.94 225.28 246.5 267.83 267.55 246.78 206.49 222.75 203.94 225.28"/><polygon class="cls-1" points="308.45 97.5 261.04 50.09 195.11 116.02 263.17 142.79 308.45 97.5"/></svg>