<svg xmlns="http://www.w3.org/2000/svg" height="525" width="410">
  <path fill="#e7bb21" d="M199.2 98.5l45.3-45.3L197 5.8l-65.9 66zm-56.7 80l-2.6 2.5 42.6 42.5 21-21zm66.4-76.2l61.1 24-6.2 16 34.7-34.8-47.4-47.4zm167.8 157.4l-55 55-54.1-54.3-17.1 17.2-54.2-54.3-13.8 13.8-49.4-49.4-6.2 6.2-5.2-8.4 18.5-18.3 89.6 35.3 27.8-70.7-146.3-57.6-105.9 125 128.3 172.7.2 58a98.6 98.6 0 0 1 3.5-13l12.5 4.3s5-23.6 33.5-45l-7.6-10.7s25.2-19.9 61.4-19l-.2 13.1s-28.4-1.5-53.6 16.7l7.6 10.8c20.2-15.4 45.8-14.3 45.8-14.3s23.4-1 45.4 15.4l-7.9 10.6a65.7 65.7 0 0 1 23 32.5l-12.7 3.9c-12.7-37-48.1-36-48.1-36l.1-13.2c-19-1.6-38.2 11.5-38.2 11.5l-7.4-10.4s-18.7 11.1-28.6 38.3l12.5 4.3c-7.3 20.4-.5 39.7-.5 39.7l-12.6 4a78.2 78.2 0 0 0 27.6 39.1l-6.2 8.4h102.5l-5.2-7.2s19.7-12.1 28.7-38.4l12.5 4.3c10.3-28.3.7-56 .7-56l12.6-4c1 3.3 1.9 6.5 2.5 9.6v-57.1zM265.4 492.1l.1.2.4.6 7 9.9s-13.5 11.8-37.9 11.9l.5-39.6a24.6 24.6 0 0 1-23.3-17.4l-12.6 4a37.7 37.7 0 0 0 13.5 19l-8 10.7a50.9 50.9 0 0 1-18.1-25.9l12.6-3.9a38.5 38.5 0 0 1 .3-23.4s2.7-10.8 14-18.8c0 0 19.8-16.2 44.6.6l-8 10.5a24.8 24.8 0 0 1 8.9 12.5l12.6-3.9a38 38 0 0 1-.3 23.5l12.5 4.2a50.8 50.8 0 0 1-18.8 25.3zm.6.8zm-.5-.6a2.1 2.1 0 0 1-.1-.2l.1.2zm.4.6zm46.2 28h25.5v-48.7a71.3 71.3 0 0 1-3.3 11.6s-5.1 18.7-22.2 37.1zm-163-43.6l12.7-4c-8.3-26.1.5-47.9.5-47.9l-12.4-4.2s-10.5 27.2-.7 56zm0 0l-12.5 3.9a73.7 73.7 0 0 1-2.7-10v49.7h44.8a89.4 89.4 0 0 1-29.5-43.6zm54-260.7l47.4 47.4 102.3-102.3-47.5-47.4-50.3 50.3-19.8 50.3-21.9-8.6zm71.3 37l85.1-85 47.4 47.3-85.1 85.2z"/>
</svg>
