<svg id="Layer_1" data-name="Layer 1" xmlns="http://www.w3.org/2000/svg" viewBox="0 0 537.53 615.31"><title>BlackFillFist</title><rect x="339.34" y="256.34" width="116.34" height="64.8" transform="translate(-87.74 365.65) rotate(-45)"/><polygon points="295.62 269.53 274.46 261.21 264.56 271.11 310.38 316.93 409.22 218.09 363.4 172.27 314.74 220.93 295.62 269.53"/><path d="M379.29,365.87l-52.38-52.38L310.37,330,258,277.63l-13.31,13.31L197,243.24l-6,6-5-8.1,17.82-17.67,86.6,34.08,26.89-68.34L175.87,133.55,73.59,254.26l124,167s.21,100.16.21,144H394.57c0-28.14-.15-143.86-.15-143.86l38-108.59Z"/><polygon points="329.28 183.96 323.26 199.26 356.83 165.69 311.01 119.87 270.18 160.71 329.28 183.96"/><polygon points="203.56 236.72 244.68 277.85 265.03 257.5 206.02 234.28 203.56 236.72"/><polygon points="304.56 113.25 258.74 67.43 195.03 131.14 260.79 157.01 304.56 113.25"/></svg>