<svg xmlns="http://www.w3.org/2000/svg" viewBox="0 0 518.37 356.41"><title>NoFist_YellowFill</title><polygon points="139.1 285.2 161.03 312.76 215.77 312.76 215.77 276.94 173.91 276.94 173.91 250.58 215.77 250.58 215.77 220 173.91 220 173.91 205.31 215.77 205.31 215.77 169.49 139.1 169.49 139.1 285.2" style="fill:#e7bb21"/><path d="M333.07,199.27l-19.32-29.78h-84.1V312.76H282l55.54-67.41L313,224Zm-68.41,1.61h21.53l-21.53,24.55Zm0,75.06V229.66H304.9Z" style="fill:#e7bb21"/><polygon points="472.12 292.36 472.12 141.13 472.07 141.13 472.07 84.98 492.82 57.61 472.07 57.61 472.07 7.1 437.26 7.1 437.26 57.61 412.91 57.61 412.91 7.1 361 7.1 361 42.92 378.1 42.92 378.1 150.37 412.91 150.37 412.91 88.19 437.26 88.19 437.26 150.37 437.31 150.37 437.31 312.88 501.19 349.31 501.19 308.71 472.12 292.36" style="fill:#e7bb21"/><polygon points="346.76 312.76 423.42 312.76 423.42 276.94 381.56 276.94 381.56 250.58 423.42 250.58 423.42 220 381.56 220 381.56 205.31 423.42 205.31 423.42 169.49 346.76 169.49 346.76 312.76" style="fill:#e7bb21"/><path d="M147.58,88.86,124,118.56l28.42,24.5,22-29.58,41.13,36.89H229.9l22.89-36.95V7.1H210.54L170.08,59.63,151.85,43.18,128.9,72ZM218,55.59v47.49L196.7,83.73Z" style="fill:#e7bb21"/><polygon points="268.77 114.55 245.7 150.37 333.43 150.37 361 111.54 309.68 42.92 351.14 42.92 351.14 7.1 279.3 7.1 261.8 38.49 317.74 114.55 268.77 114.55" style="fill:#e7bb21"/><path d="M132.46,239.11,78,169.49l-21.65,27V64H80.74v86.33h34.82V60.83l20.9-27.36h-20.9V7.1H80.74V33.47H56.39V7.1H21.59V312.76h34.8V272.92l62,75.86,27.76-26.15-46.08-57.36ZM57.4,242.74l16.3-20.53,16.1,20.53Z" style="fill:#e7bb21"/></svg>