<svg id="Layer_1" data-name="Layer 1" xmlns="http://www.w3.org/2000/svg" viewBox="0 0 659.63 356.41"><defs><style>.cls-1{fill:#e7bb21;}</style></defs><title>YellowOutline</title><path class="cls-1" d="M235.86,141.44v51.77l20-24.89,50.22,64.26-29.9,24.15,42.53,52.93L293.07,333.8l-57.21-70v36.78H203.74V221.21l24.11-71.76,8-8m.93,94.48H266.7L251.84,217l-15.05,18.94m4.3-104.62-8.92,8.92-8,8-.85.85-.39,1.13L198.8,219.49l-.29.83v85.47h42.58V278.45L289,337.11l3.56,4.35,4.08-3.85,25.62-24.14,3.52-3.32-3-3.76-39.26-48.87,25.85-20.87.83-7.29L260,165.1l-4.07-5.2L251.77,165l-10.68,13.3v-47Zm6.53,99.39,4.19-5.27,4.14,5.27Z"/><path class="cls-1" d="M390.54,168.32v33.06H344.33v13.56h46.21v28.22H344.33v24.33h46.21v33.07H318.15l-5.95-7.39V168.32H383m12.8-5.23H307V295l8.67,10.79h80.13V262.27H349.56V248.39h46.21V209.71H349.56v-3.1h46.21V163.09Z"/><path class="cls-1" d="M473.4,168.32l17.83,27.48-18.57,22.85,22.66,19.69-51.26,62.22H395.77V168.32H473.4M428.09,220,448,197.29H428.09V220m0,46.62,37.15-42.72H428.09v42.72m48.16-103.48H390.54v142.7h56l1.57-1.91,51.26-62.22,3.24-3.93-3.85-3.34L479.91,218l15.38-18.92,2.4-2.95L495.62,193l-17.83-27.49-1.54-2.38Zm-42.93,39.43h3.1l-3.1,3.54v-3.54Zm0,26.56h20.44l-20.44,23.51V229.08Z"/><path class="cls-1" d="M619.57,168.32V281.73l26.84,15.09v39.55l-59-33.63V168.32h32.13m5.23-5.23H582.22V305.78l2.63,1.5,59,33.63,7.82,4.46V293.76l-2.66-1.5L624.8,278.67V163.09Z"/><path class="cls-1" d="M582.22,168.32v33.06H536v13.56h46.23v28.22H536v24.33h46.23v33.07H503.87V168.32h70.76m12.81-5.23h-88.8v142.7h88.8V262.27H541.22V248.39h46.22V209.71H541.22v-3.1h46.22V163.09Z"/><path class="cls-1" d="M417.14,18.43V130.84l-12.73,19.83H382.78l-38-34-20.29,27.3-26.23-22.61L320,93.89l-24.94-23.3,21-26.77,24.76,23.1,37.33-48.49h39M382.4,101.11V71L368.89,88.83l13.51,12.28m40-87.91H375.56l-1.57,2-33.89,44L319.7,40.33l-7.58,0L291,67.34l1,7.89,20.92,19.25-18.7,23.58L291.07,122l3.8,3.28,26.24,22.61,4.25,3.67,3.36-4.51,16.87-22.7,33.7,30.22,1.49,1.34h26.46l1.55-2.37,12.72-19.83.86-1.3V13.2Zm-46.43,75,1.23-1.62v2.73l-1.23-1.11Z"/><path class="cls-1" d="M619.53,18.43V65.05h19.15L619.53,90.31v60.36H587.4V93.28H564.92v57.39H532.8V51.49H521V18.43h44V65.05H587.4V18.43h32.13m5.23-5.23H582.17V59.83h-12V13.2H515.74V56.72h11.83V155.9h42.58V98.51h12V155.9h42.59V92.07l18.09-23.86,6.35-8.38H624.76V13.2Z"/><path class="cls-1" d="M515.74,18.43V51.49H469.65L517,114.83l-25.44,35.84h-81l20.12-31.24,48.16,0-53.42-72,16.15-29h66.31M521,13.2H438.53L437,15.89l-16.16,29-1.64,3,2,2.72,47.24,63.65-37.79,0h-2.85l-1.54,2.39-20.12,31.24L401,155.9h93.27l1.56-2.2,25.44-35.85,2.21-3.1-2.28-3.06-41.11-55H521V18.43l-7.82-5.23Z"/><path class="cls-1" d="M290.47,18.43V45.6l17.67,0L290.47,68v82.64H258.34V71H235.86v55.63L203.74,94.5V18.43h32.12V42.77h22.48V18.43h32.13m5.23-5.23H253.11V37.54h-12V13.2H198.51V93.93L200,95.46l32.13,32.13,8.92,8.92V76.22h12V155.9H295.7V69.79l23-29.45-23,0V13.2Z"/><path class="cls-1" d="M209.94,108.2l25.88,25.88-46.47,46.47-25.88-25.88,46.47-46.47m0-7.4-3.7,3.7L159.77,151l-3.69,3.7,3.69,3.69,25.89,25.89,3.69,3.69,3.7-3.69,46.47-46.47v-7.4L213.64,104.5l-3.7-3.7Z"/><path class="cls-1" d="M180.38,78.58l25.88,25.89L150.43,160.3l-25.89-25.88,5.6-5.6,12,4.7,10.8-27.45,27.49-27.49m0-7.39-3.7,3.69L149.2,102.37l-.77.77-.4,1-8.89,22.59L132.05,124l-3.18-1.26-2.43,2.42-5.59,5.6-3.7,3.7,3.7,3.7L146.73,164l3.7,3.7,3.69-3.7L210,108.16l3.7-3.69-3.7-3.7L184.08,74.88l-3.7-3.69Z"/><path class="cls-1" d="M74.45,56.71l79.88,31.43-15.19,38.6L90.22,107.5l-10.07,10L83,122.05l3.4-3.38,26.95,27,7.51-7.52,29.6,29.6,9.34-9.34,29.58,29.58,30-30L197.9,219.29s.09,65.37.09,81.27H86.83c0-24.77-.12-81.34-.12-81.34l-70-94.32L74.45,56.71m-1.57-6.23-2.42,2.85L12.68,121.52,10,124.68,12.47,128l69,92.93c0,9.66.11,57.41.11,79.61v5.23H203.21v-5.23c0-14.8-.07-72.51-.08-80.38l21.15-60.5,7.56-21.61-16.19,16.19-26.3,26.29-25.89-25.89-3.69-3.7-3.7,3.7-5.64,5.64-25.9-25.9-3.7-3.69-3.69,3.69-3.82,3.82L90.09,115l1.39-1.38,45.75,18,4.86,1.91,1.92-4.86,15.18-38.61,1.92-4.86-4.87-1.92L76.36,51.85l-3.48-1.37Z"/><path class="cls-1" d="M150.79,49l25.88,25.88-19,19,3.4-8.64L127.72,72.05,150.79,49m0-7.4-3.7,3.7L124,68.35,118.38,74l7.43,2.92,28.52,11.22-1.49,3.78-9.19,23.37,17.76-17.76,19-19,3.7-3.7-3.7-3.7L154.49,45.29l-3.7-3.7Z"/><path class="cls-1" d="M91.48,113.61l33.33,13.12-11.49,11.49L90.09,115l1.39-1.38m-1.26-6.11-2.42,2.4-1.39,1.38L82.68,115l3.71,3.72,23.23,23.23,3.7,3.7,3.7-3.7,11.49-11.5,5.64-5.64-7.42-2.92L93.39,108.74l-3.17-1.24Z"/><path class="cls-1" d="M121.26,19.36l25.88,25.88L122.42,70,85.27,55.35l36-36m0-7.39-3.7,3.69-36,36-5.64,5.64,7.42,2.93L120.5,74.83l3.19,1.26,2.43-2.43,24.72-24.72,3.7-3.7-3.7-3.69L125,15.66,121.26,12Z"/></svg>