<?xml version="1.0" encoding="UTF-8" standalone="no"?>
<!DOCTYPE svg PUBLIC "-//W3C//DTD SVG 20010904//EN"
              "http://www.w3.org/TR/2001/REC-SVG-20010904/DTD/svg10.dtd">

<svg xmlns="http://www.w3.org/2000/svg"
     width="0.843in" height="0.684in"
     viewBox="0 0 843 684">
  <path id="Imported Path #17"
        fill="none" stroke="black" stroke-width="1"
        d="M 626.68,154.91
           C 605.90,85.71 547.50,46.09 547.50,46.09
             547.50,46.09 566.09,20.46 566.09,20.46
             638.92,73.30 656.25,143.25 656.25,143.25
             656.25,143.25 684.44,214.46 656.74,299.30
             656.74,299.30 596.49,279.73 596.49,279.73
             596.49,279.73 616.92,228.10 596.55,164.70
             596.55,164.70 626.68,154.91 626.68,154.91 Z
           M 432.33,407.00M 536.25,259.94
           C 536.25,259.94 566.09,269.86 566.09,269.86
             566.09,269.86 557.09,311.83 510.37,347.22
             510.37,347.22 454.47,270.28 454.47,270.28
             444.70,277.45 432.63,281.69 419.57,281.69
             406.52,281.69 394.45,277.45 384.67,270.28
             384.67,270.28 366.02,295.94 366.02,295.94
             366.02,295.94 341.90,279.81 332.90,250.43
             332.90,250.43 322.66,225.85 332.90,194.14
             332.90,194.14 347.64,134.53 419.49,131.13
             419.49,131.13 419.49,162.80 419.49,162.80
             432.54,162.84 444.60,167.07 454.39,174.22
             454.39,174.22 473.03,148.55 473.03,148.55
             473.03,148.55 495.73,163.03 506.13,194.04
             506.13,194.04 536.27,184.29 536.27,184.29
             536.27,184.29 549.76,219.38 536.27,259.94
             536.27,259.94 536.25,259.94 536.25,259.94 Z
           M 347.35,321.55
           C 347.35,321.55 365.97,295.90 365.97,295.90
             365.97,295.90 387.25,313.35 419.49,313.35
             419.49,313.35 419.49,345.07 419.49,345.07
             419.49,345.07 381.60,347.00 347.35,321.55 Z
           M 419.49,408.43
           C 419.49,408.43 419.49,440.09 419.49,440.09
             341.89,440.09 291.51,398.39 291.51,398.39
             291.51,398.39 310.13,372.77 310.13,372.77
             362.60,411.20 416.23,407.36 419.49,408.43 Z
           M 242.43,279.77
           C 242.43,279.77 272.58,269.98 272.58,269.98
             287.84,319.80 328.74,347.15 328.74,347.15
             328.74,347.15 310.13,372.77 310.13,372.77
             256.64,334.37 242.43,279.77 242.43,279.77 Z
           M 291.51,398.39
           C 291.51,398.39 272.90,424.02 272.90,424.02
             272.90,424.02 208.68,382.52 182.16,299.35
             182.16,299.35 212.30,289.56 212.30,289.56
             212.30,289.56 231.23,356.79 291.51,398.39 Z
           M 242.43,279.76
           C 242.43,279.76 212.30,289.55 212.30,289.55
             212.30,289.55 187.98,236.98 212.30,154.90
             230.07,160.67 242.43,165.03 242.43,165.03
             242.43,165.03 222.40,213.22 242.43,279.76 Z
           M 271.71,174.21
           C 271.71,174.21 242.43,165.03 242.43,165.03
             259.28,106.27 310.05,71.63 310.05,71.63
             310.05,71.63 353.59,36.01 419.49,36.01
             419.49,36.01 419.49,67.72 419.49,67.72
             473.27,67.78 510.27,97.32 510.27,97.32
             510.27,97.32 491.59,122.91 491.59,122.91
             413.96,69.89 347.33,122.91 347.33,122.91
             347.33,122.91 328.68,97.24 328.68,97.24
             289.97,121.51 271.71,174.21 271.71,174.21 Z
           M 212.30,154.91
           C 212.30,154.91 182.29,145.12 182.29,145.12
             182.29,145.12 202.14,70.71 272.80,20.32
             272.80,20.32 291.43,46.01 291.43,46.01
             291.43,46.01 234.63,83.73 212.30,154.91 Z
           M 42.08,609.66
           C 42.08,609.66 64.01,609.66 64.01,609.66
             64.01,609.66 64.01,662.28 64.01,662.28
             64.01,662.28 83.64,662.28 83.64,662.28
             83.64,662.28 83.64,539.52 83.64,539.52
             83.64,539.52 64.01,539.52 64.01,539.52
             64.01,539.52 64.01,592.12 64.01,592.12
             64.01,592.12 42.08,592.12 42.08,592.12
             42.08,592.12 42.08,539.52 42.08,539.52
             42.08,539.52 22.79,539.52 22.79,539.52
             22.79,539.52 22.79,662.28 22.79,662.28
             22.79,662.28 42.08,662.28 42.08,662.28
             42.08,662.28 42.08,609.66 42.08,609.66 Z
           M 158.03,539.52
           C 158.03,539.52 129.75,539.52 129.75,539.52
             129.75,539.52 110.11,662.28 110.11,662.28
             110.11,662.28 127.82,662.28 127.82,662.28
             127.82,662.28 131.15,640.00 131.15,640.00
             131.15,640.00 154.83,640.00 154.83,640.00
             154.83,640.00 158.16,662.28 158.16,662.28
             158.16,662.28 177.62,662.28 177.62,662.28
             177.62,662.28 158.03,539.52 158.03,539.52 Z
           M 142.56,561.86
           C 142.56,561.86 143.28,561.75 143.28,561.75
             143.28,561.75 152.19,623.50 152.19,623.50
             152.19,623.50 133.69,623.13 133.69,623.13
             133.69,623.13 142.56,561.86 142.56,561.86 Z
           M 374.67,500.33M 201.65,568.98
           C 201.65,583.01 206.73,593.18 222.87,607.38
             235.50,618.43 239.35,625.10 239.35,634.04
             239.35,642.81 235.50,645.96 229.35,645.96
             223.20,645.96 219.35,642.81 219.35,634.04
             219.35,634.04 219.35,625.27 219.35,625.27
             219.35,625.27 201.10,625.27 201.10,625.27
             201.10,625.27 201.10,632.81 201.10,632.81
             201.10,652.45 210.94,663.68 229.87,663.68
             248.80,663.68 258.62,652.45 258.62,632.81
             258.62,618.79 253.54,608.61 237.40,594.40
             224.78,583.36 220.92,576.75 220.92,567.75
             220.92,558.98 224.44,555.65 230.57,555.65
             236.70,555.65 240.21,558.98 240.21,567.75
             240.21,567.75 240.21,572.84 240.21,572.84
             240.21,572.84 258.44,572.84 258.44,572.84
             258.44,572.84 258.44,568.98 258.44,568.98
             258.44,549.33 248.80,538.11 230.04,538.11
             211.28,538.11 201.63,549.33 201.65,568.98 Z
           M 306.48,609.66
           C 306.48,609.66 328.40,609.66 328.40,609.66
             328.40,609.66 328.40,662.28 328.40,662.28
             328.40,662.28 348.06,662.28 348.06,662.28
             348.06,662.28 348.06,539.52 348.06,539.52
             348.06,539.52 328.40,539.52 328.40,539.52
             328.40,539.52 328.40,592.12 328.40,592.12
             328.40,592.12 306.48,592.12 306.48,592.12
             306.48,592.12 306.48,539.52 306.48,539.52
             306.48,539.52 287.19,539.52 287.19,539.52
             287.19,539.52 287.19,662.28 287.19,662.28
             287.19,662.28 306.48,662.28 306.48,662.28
             306.48,662.28 306.48,609.66 306.48,609.66 Z
           M 484.28,662.28
           C 482.35,657.71 482.18,653.36 482.18,647.36
             482.18,647.36 482.18,628.43 482.18,628.43
             482.18,615.63 479.02,606.47 469.38,602.47
             469.38,602.47 469.38,602.12 469.38,602.12
             478.00,598.09 482.00,590.02 482.00,577.40
             482.00,577.40 482.00,567.75 482.00,567.75
             482.00,548.81 473.42,539.52 453.42,539.52
             453.42,539.52 424.31,539.52 424.31,539.52
             424.31,539.52 424.31,662.31 424.31,662.31
             424.31,662.31 443.59,662.31 443.59,662.31
             443.59,662.31 443.59,612.30 443.59,612.30
             443.59,612.30 450.26,612.30 450.26,612.30
             459.03,612.30 462.89,616.51 462.89,627.90
             462.89,627.90 462.89,647.19 462.89,647.19
             462.89,657.18 463.59,659.11 464.64,662.28
             464.64,662.28 484.28,662.28 484.28,662.28 Z
           M 452.94,557.02
           C 459.75,557.02 462.75,560.88 462.75,569.65
             462.75,569.65 462.75,581.75 462.75,581.75
             462.75,591.60 458.37,594.75 451.18,594.75
             451.18,594.75 443.64,594.75 443.64,594.75
             443.64,594.75 443.64,557.05 443.64,557.05
             443.64,557.05 452.94,557.02 452.94,557.02 Z
           M 531.61,557.05
           C 531.61,557.05 564.93,557.05 564.93,557.05
             564.93,557.05 564.93,539.52 564.93,539.52
             564.93,539.52 512.33,539.52 512.33,539.52
             512.33,539.52 512.33,662.28 512.33,662.28
             512.33,662.28 564.93,662.28 564.93,662.28
             564.93,662.28 564.93,644.73 564.93,644.73
             564.93,644.73 531.61,644.73 531.61,644.73
             531.61,644.73 531.61,608.78 531.61,608.78
             531.61,608.78 558.09,608.78 558.09,608.78
             558.09,608.78 558.09,591.25 558.09,591.25
             558.09,591.25 531.61,591.25 531.61,591.25
             531.61,591.25 531.61,557.05 531.61,557.05 Z
           M 623.49,539.52
           C 623.49,539.52 594.38,539.52 594.38,539.52
             594.38,539.52 594.38,662.27 594.38,662.27
             594.38,662.27 624.74,662.27 624.74,662.27
             644.03,662.27 654.03,652.09 654.03,633.15
             654.03,633.15 654.03,623.15 654.03,623.15
             654.03,610.16 650.00,601.01 639.66,597.01
             639.66,597.01 639.66,596.66 639.66,596.66
             648.25,592.63 652.11,584.74 652.11,572.12
             652.11,572.12 652.11,567.75 652.11,567.75
             652.11,548.81 643.48,539.52 623.49,539.52 Z
           M 622.99,557.02
           C 629.81,557.02 632.82,560.88 632.82,569.65
             632.82,569.65 632.82,576.49 632.82,576.49
             632.82,586.34 628.43,589.49 621.24,589.49
             621.24,589.49 613.70,589.49 613.70,589.49
             613.70,589.49 613.70,557.05 613.70,557.05
             613.70,557.05 622.99,557.02 622.99,557.02 Z
           M 622.25,607.09
           C 631.02,607.09 634.71,610.60 634.71,622.00
             634.71,622.00 634.71,632.70 634.71,632.70
             634.71,641.79 631.19,644.79 624.70,644.79
             624.70,644.79 613.70,644.79 613.70,644.79
             613.70,644.79 613.70,607.09 613.70,607.09
             613.70,607.09 622.25,607.09 622.25,607.09 Z
           M 702.40,557.05
           C 702.40,557.05 735.72,557.05 735.72,557.05
             735.72,557.05 735.72,539.52 735.72,539.52
             735.72,539.52 683.11,539.52 683.11,539.52
             683.11,539.52 683.11,662.28 683.11,662.28
             683.11,662.28 735.71,662.28 735.71,662.28
             735.71,662.28 735.71,644.73 735.71,644.73
             735.71,644.73 702.40,644.73 702.40,644.73
             702.40,644.73 702.40,608.78 702.40,608.78
             702.40,608.78 728.87,608.78 728.87,608.78
             728.87,608.78 728.87,591.25 728.87,591.25
             728.87,591.25 702.40,591.25 702.40,591.25
             702.40,591.25 702.40,557.05 702.40,557.05 Z
           M 765.13,662.28
           C 765.13,662.28 816.16,662.28 816.16,662.28
             816.16,662.28 816.16,644.73 816.16,644.73
             816.16,644.73 784.42,644.73 784.42,644.73
             784.42,644.73 784.42,539.52 784.42,539.52
             784.42,539.52 765.13,539.52 765.13,539.52
             765.13,539.52 765.13,662.28 765.13,662.28 Z" />
</svg>
