<?xml version="1.0" encoding="UTF-8"?>
<svg width="64px" height="64px" viewBox="0 0 64 64" version="1.1" xmlns="http://www.w3.org/2000/svg" xmlns:xlink="http://www.w3.org/1999/xlink">
    <!-- Generator: Sketch 49.2 (51160) - http://www.bohemiancoding.com/sketch -->
    <title>docker_logo_original</title>
    <desc>Created with Sketch.</desc>
    <defs></defs>
    <g id="Page-1" stroke="none" stroke-width="1" fill="none" fill-rule="evenodd">
        <g id="Menu" transform="translate(-1199.000000, -1456.000000)" fill="#FFFFFF">
            <g id="docker_logo_original" transform="translate(1199.000000, 1456.000000)">
                <path d="M32,64 C14.326888,64 0,49.673112 0,32 C0,14.326888 14.326888,0 32,0 C49.673112,0 64,14.326888 64,32 C64,49.673112 49.673112,64 32,64 Z M32.3169352,18 L32.3169352,22.1666667 L36.5245972,22.1666667 L36.5245972,18 L32.3169352,18 Z M32.3169352,23 L32.3169352,27.1666667 L36.5245972,27.1666667 L36.5245972,23 L32.3169352,23 Z M32.3169352,28 L32.3169352,32.1666667 L36.5245972,32.1666667 L36.5245972,28 L32.3169352,28 Z M27.2677409,23 L27.2677409,27.1666667 L31.4754028,27.1666667 L31.4754028,23 L27.2677409,23 Z M27.2677409,28 L27.2677409,32.1666667 L31.4754028,32.1666667 L31.4754028,28 L27.2677409,28 Z M22.2185465,23 L22.2185465,27.1666667 L26.4262085,27.1666667 L26.4262085,23 L22.2185465,23 Z M22.2185465,28 L22.2185465,32.1666667 L26.4262085,32.1666667 L26.4262085,28 L22.2185465,28 Z M17.1693522,28 L17.1693522,32.1666667 L21.3770142,32.1666667 L21.3770142,28 L17.1693522,28 Z M37.3661296,28 L37.3661296,32.1666667 L41.5737915,32.1666667 L41.5737915,28 L37.3661296,28 Z M53.514676,31.7052233 C53.3979791,31.6303535 50.993366,30.1264473 48.7202424,30.4845202 C48.1696305,28.2026192 46.0559378,26.7817207 45.9523897,26.7133613 L45.3672616,26.3276192 C45.3672616,26.3276192 45.0010782,26.7035322 44.879107,26.8289213 C44.8345496,26.8747247 44.7197307,27.00558 44.5828513,27.242042 C44.2044179,27.8957857 43.6573596,29.3567353 43.9603245,32.0592448 C43.9899096,32.3131512 43.9126596,32.5638022 43.7482977,32.7444662 C43.6003725,32.9088542 43.3949203,33 43.1697446,33 L13.8032227,33 L13.8032227,33.8333333 C13.8032227,46.6197917 23.2195099,48 27.2677409,48 C37.691566,48 44.9366339,41.7304687 48.0989547,36.2047527 C52.2655261,35.5472005 53.7086228,32.9552235 53.7842292,32.8315255 L54.1967773,32.1397937 L53.514676,31.7052233 Z" id="Combined-Shape"></path>
            </g>
        </g>
    </g>
</svg>