<?xml version="1.0" encoding="UTF-8"?>
<svg width="64px" height="63px" viewBox="0 0 64 63" version="1.1" xmlns="http://www.w3.org/2000/svg" xmlns:xlink="http://www.w3.org/1999/xlink">
    <!-- Generator: Sketch 49.2 (51160) - http://www.bohemiancoding.com/sketch -->
    <title>GitHub</title>
    <desc>Created with Sketch.</desc>
    <defs>
        <polygon id="path-1" points="0 0 64 0 64 63 0 63"></polygon>
    </defs>
    <g id="Page-1" stroke="none" stroke-width="1" fill="none" fill-rule="evenodd">
        <g id="Menu" transform="translate(-875.000000, -1457.000000)">
            <g id="GitHub" transform="translate(875.000000, 1457.000000)">
                <mask id="mask-2" fill="white">
                    <use xlink:href="#path-1"></use>
                </mask>
                <g id="Clip-2"></g>
                <path d="M31.9980356,0 C14.3282996,0 0,14.4618063 0,32.300149 C0,46.5676508 9.16783303,58.6740107 21.8853284,62.9447443 C23.4863106,63.2401664 24.069736,62.2448516 24.069736,61.3883256 C24.069736,60.6210211 24.0422345,58.5907374 24.0265193,55.8942667 C15.1258441,57.8472252 13.2478821,51.5660349 13.2478821,51.5660349 C11.7922652,47.8345954 9.69429098,46.8412632 9.69429098,46.8412632 C6.78895028,44.8367546 9.91430325,44.8783913 9.91430325,44.8783913 C13.1260896,45.1064016 14.8154696,48.2053601 14.8154696,48.2053601 C17.669736,53.1422806 22.3037446,51.71672 24.1286679,50.8899345 C24.4193984,48.8021525 25.2444444,47.3785747 26.1598527,46.5716162 C19.0546347,45.7567269 11.5840393,42.9868964 11.5840393,30.6089067 C11.5840393,27.083668 12.8314303,24.2008237 14.8783303,21.9425295 C14.5483118,21.1256576 13.4502149,17.8423081 15.1906691,13.397097 C15.1906691,13.397097 17.8779619,12.5266921 23.9911602,16.7062215 C26.5429098,15.9904672 29.2812769,15.6315987 32.0019644,15.6197025 C34.7187231,15.6315987 37.4570902,15.9904672 40.0127686,16.7062215 C46.1220381,12.5266921 48.8034377,13.397097 48.8034377,13.397097 C50.5497851,17.8423081 49.4516882,21.1256576 49.1216697,21.9425295 C51.1724985,24.2008237 52.4120319,27.083668 52.4120319,30.6089067 C52.4120319,43.0166369 44.9296501,45.7468134 37.8008594,46.5478238 C38.9500307,47.5431387 39.9734807,49.5159242 39.9734807,52.5276439 C39.9734807,56.8459623 39.9341928,60.3295644 39.9341928,61.3883256 C39.9341928,62.2507997 40.5097606,63.256028 42.1343155,62.9407789 C54.8380602,58.6621145 64,46.5636854 64,32.300149 C64,14.4618063 49.6717004,0 31.9980356,0" id="Fill-1" fill="#FEFEFE" mask="url(#mask-2)"></path>
            </g>
        </g>
    </g>
</svg>