<?xml version="1.0" encoding="UTF-8"?>
<svg width="64px" height="64px" viewBox="0 0 64 64" version="1.1" xmlns="http://www.w3.org/2000/svg" xmlns:xlink="http://www.w3.org/1999/xlink">
    <!-- Generator: Sketch 49.2 (51160) - http://www.bohemiancoding.com/sketch -->
    <title>medium_logo_original</title>
    <desc>Created with Sketch.</desc>
    <defs></defs>
    <g id="Page-1" stroke="none" stroke-width="1" fill="none" fill-rule="evenodd">
        <g id="Menu" transform="translate(-1118.000000, -1456.000000)" fill="#FFFFFF">
            <g id="medium_logo_original" transform="translate(1118.000000, 1456.000000)">
                <path d="M32,64 C14.326888,64 0,49.673112 0,32 C0,14.326888 14.326888,0 32,0 C49.673112,0 64,14.326888 64,32 C64,49.673112 49.673112,64 32,64 Z M48,20.675 L48,20 L39.3333333,20 L32.6666667,36.2 L26,20 L16,20 L16,20.675 L18.6666667,25.3386139 L18.6666667,41.6 L16,46.325 L16,47 L25.3333333,47 L25.3333333,46.325 L22,41.6 L22,31.1682342 L30.6666667,46.325 L31.3333333,46.325 L38.6666667,27.7625 L38.6666667,42.95 L36,46.325 L36,47 L48,47 L48,46.325 L45.3333333,42.95 L45.3333333,23.375 L48,20.675 Z" id="Combined-Shape"></path>
            </g>
        </g>
    </g>
</svg>