<?xml version="1.0" encoding="UTF-8"?>
<svg width="64px" height="64px" viewBox="0 0 64 64" version="1.1" xmlns="http://www.w3.org/2000/svg" xmlns:xlink="http://www.w3.org/1999/xlink">
    <!-- Generator: Sketch 49.2 (51160) - http://www.bohemiancoding.com/sketch -->
    <title>Steemit</title>
    <desc>Created with Sketch.</desc>
    <defs></defs>
    <g id="Page-1" stroke="none" stroke-width="1" fill="none" fill-rule="evenodd">
        <g id="Menu" transform="translate(-956.000000, -1456.000000)" fill="#FFFFFF">
            <g id="Steemit" transform="translate(956.000000, 1456.000000)">
                <path d="M32,64 C14.326888,64 0,49.673112 0,32 C0,14.326888 14.326888,0 32,0 C49.673112,0 64,14.326888 64,32 C64,49.673112 49.673112,64 32,64 Z M44.8995593,43.357784 C43.4301143,45.1144871 41.5430984,46.3028949 39.4390325,47.1683318 C37.9376949,47.7859037 36.3735256,48.0829395 34.7561137,48.1970537 C32.4262035,48.3612914 30.1180141,48.2661257 27.8273604,47.8070752 C26.1074895,47.4624036 24.4581319,46.8865395 22.823926,46.2633042 C22.761942,46.2396451 22.7081166,46.1947616 22.618849,46.1405097 C22.8173038,45.9192678 22.998011,45.7182446 23.1782945,45.516798 C23.8343714,44.7837357 24.4022933,43.9912875 24.8453996,43.1094426 C25.3460397,42.113166 25.3624628,41.142348 24.8804709,40.1147376 C22.9132466,35.920351 23.7226942,30.7997654 26.8570722,27.380784 C28.9024387,25.1496282 31.4264066,23.8250349 34.4328962,23.4877733 C40.8711811,22.7655085 46.710658,27.040082 47.653027,33.5047917 C48.1887913,37.1803184 47.2946322,40.4945009 44.8995593,43.357784 Z M51.5154787,32.7402897 C51.0524528,29.5819822 49.6951618,26.8227569 47.5523692,24.4602321 C45.9277522,22.6690195 43.9855865,21.3146274 41.7464272,20.3909159 C41.3310813,20.2195858 41.3322998,20.2201151 41.5123713,19.7991203 C41.8286487,19.0597595 42.2824565,18.4110126 42.8398888,17.8373186 C43.8467317,16.8011337 45.0573271,16.0729409 46.3896126,15.5344444 C46.4931312,15.4925778 46.5940009,15.4440952 46.7739665,15.3641728 C46.5848358,15.2652491 46.472258,15.2001998 46.3547532,15.1457891 C44.7575788,14.4061636 43.1057313,13.8125155 41.4195012,13.3129746 C38.1944253,12.357453 34.9022794,11.8091118 31.5362826,11.7771429 C30.4089682,11.7664513 29.2769917,11.8317124 28.1536507,11.9334942 C26.6320755,12.0713735 25.1190828,12.297326 23.6654252,12.7964435 C20.5953623,13.8505183 18.0690104,15.7045572 15.9863475,18.1562139 C13.3275512,21.2860988 12.0955527,24.9214526 12.3123378,29.0324236 C12.4419744,31.4918608 13.1378377,33.7846256 14.384617,35.9056368 C15.8981395,38.4804586 17.9928813,40.4504643 20.6411351,41.8337555 C20.9758488,42.0086318 20.9998477,42.0712465 20.8429805,42.4138539 C20.5352325,43.0858894 20.1200456,43.6854655 19.6043598,44.2149641 C18.3842813,45.4676802 16.884586,46.2416035 15.2352284,46.7589814 C15.1322396,46.7912678 15.0323235,46.8332932 14.9169908,46.8759537 C14.9562474,46.9294117 14.9671078,46.9565641 14.9871334,46.9693199 C15.0837119,47.0310348 15.1809792,47.0919557 15.2811072,47.1476896 C18.3222972,48.8399785 21.540645,50.0825852 24.9126284,50.9357427 C26.9284863,51.4457635 28.9723694,51.8098599 31.0471386,51.918893 C32.4807706,51.9942635 33.922932,51.9728803 35.3585771,51.9216453 C36.4859445,51.8814724 37.6097094,51.7338014 38.705449,51.4329018 C42.4217351,50.4123839 45.5233198,48.3981827 47.9782576,45.4637635 C51.0622537,41.7773864 52.2120837,37.4918566 51.5154787,32.7402897 Z" id="Fill-1"></path>
            </g>
        </g>
    </g>
</svg>