<?xml version="1.0" encoding="UTF-8"?>
<svg width="64px" height="64px" viewBox="0 0 64 64" version="1.1" xmlns="http://www.w3.org/2000/svg" xmlns:xlink="http://www.w3.org/1999/xlink">
    <!-- Generator: Sketch 49.2 (51160) - http://www.bohemiancoding.com/sketch -->
    <title>telegram_logo_original</title>
    <desc>Created with Sketch.</desc>
    <defs></defs>
    <g id="Page-1" stroke="none" stroke-width="1" fill="none" fill-rule="evenodd">
        <g id="Menu" transform="translate(-1037.000000, -1456.000000)" fill="#FFFFFF" fill-rule="nonzero">
            <g id="telegram_logo_original" transform="translate(1037.000000, 1456.000000)">
                <path d="M32,64 C14.326888,64 0,49.673112 0,32 C0,14.326888 14.326888,0 32,0 C49.673112,0 64,14.326888 64,32 C64,49.673112 49.673112,64 32,64 Z M30.7520559,41.4228237 C30.9149886,41.5343564 31.0528546,41.6334965 31.1907207,41.7450292 C34.0357747,43.8269724 36.8808287,45.9089157 39.7258828,47.9784664 C41.4178753,49.2177183 42.8717355,48.68484 43.3104002,46.6400743 C45.1653253,38.0396659 47.0077171,29.426865 48.850109,20.8264567 C49.075708,19.735915 49.3639733,18.6453733 49.4767728,17.542439 C49.6522387,15.8074864 48.4114442,14.94001 46.7946514,15.559636 C38.3096224,18.7940835 29.8245934,22.0409235 21.3395644,25.2753711 C17.9931792,26.5518006 14.6467941,27.8158375 11.3129422,29.117052 C10.7364114,29.3401174 10.1849472,29.6871079 9.72121595,30.0960611 C9.21988484,30.5421918 9.29508451,31.1494252 9.859082,31.5212008 C10.2225471,31.7690512 10.6486785,31.9301539 11.0622767,32.0664716 C13.7694646,32.9215555 16.5017192,33.7642468 19.2214405,34.582153 C19.5723722,34.6936857 19.7353048,34.8547885 19.8481043,35.201779 C21.0011659,38.758432 22.179294,42.3026925 23.3323555,45.8469531 C23.4952882,46.3302613 23.7835535,46.5533267 24.2974179,46.5781117 C25.0619479,46.6152893 25.6510119,46.3302613 26.1774096,45.822168 C27.6939362,44.3598507 29.2104628,42.8975335 30.7520559,41.4228237 Z M24.3600843,44.0376452 C23.7710203,42.2531225 23.1819562,40.4562072 22.5928922,38.6716844 C22.1542274,37.3208998 21.728096,35.9701152 21.2518314,34.6317231 C21.1139654,34.2351625 21.1766318,34.0492747 21.5400968,33.8262094 C27.9195352,29.8482107 34.3115068,25.870212 40.6909452,21.8922133 C40.9917438,21.7063255 41.3050758,21.5080452 41.6434743,21.4212976 C41.8941398,21.359335 42.1824052,21.4708677 42.4581373,21.4956527 C42.3328046,21.718718 42.2576049,21.9913535 42.082139,22.1524562 C39.1994851,24.7424927 36.304298,27.3201368 33.4091108,29.8977808 C30.8021891,32.2275744 28.182734,34.5697605 25.563279,36.8871616 C25.2374138,37.1845821 25.0870144,37.4943951 25.0494146,37.9281332 C24.886482,39.8737588 24.6984828,41.8317768 24.5104836,43.7774023 C24.4979504,43.8517575 24.4728838,43.9261126 24.4603505,44.0128602 C24.4227507,44.0252527 24.3976841,44.0252527 24.3600843,44.0376452 Z" id="Combined-Shape"></path>
            </g>
        </g>
    </g>
</svg>