<?xml version="1.0" encoding="UTF-8"?>
<svg width="64px" height="64px" viewBox="0 0 64 64" version="1.1" xmlns="http://www.w3.org/2000/svg" xmlns:xlink="http://www.w3.org/1999/xlink">
    <!-- Generator: Sketch 49.2 (51160) - http://www.bohemiancoding.com/sketch -->
    <title>twitter_logo_original</title>
    <desc>Created with Sketch.</desc>
    <defs></defs>
    <g id="Page-1" stroke="none" stroke-width="1" fill="none" fill-rule="evenodd">
        <g id="Menu" transform="translate(-1286.000000, -1456.000000)" fill="#FFFFFF">
            <g id="twitter_logo_original" transform="translate(1286.000000, 1456.000000)">
                <g id="Twitter">
                    <path d="M32,64 C14.326888,64 0,49.673112 0,32 C0,14.326888 14.326888,0 32,0 C49.673112,0 64,14.326888 64,32 C64,49.673112 49.673112,64 32,64 Z M48.4359105,20.332634 C48.4359105,20.332634 52.0844257,17.178885 51.9688361,15.7715127 C51.9688361,15.7715127 47.7590642,17.6705336 46.8344865,17.7553202 C46.8344865,17.7553202 46.5417382,17.4528055 46.0625507,17.0550482 C45.9027753,16.9224625 45.7223615,16.7792784 45.5249797,16.6332491 C45.1595118,16.3591863 44.7747213,16.1236758 44.3751791,15.924157 C44.1754426,15.8244332 43.9721047,15.7336005 43.7659274,15.6510189 C42.4238007,15.0469855 40.9534105,14.8990357 39.5100997,15.0612114 C39.303853,15.0843997 39.098299,15.1139185 38.8936453,15.14927 C36.4997855,15.5341528 34.4525557,17.0262407 33.1642416,19.0606214 C33.0485828,19.2461989 32.9413733,19.4366842 32.843652,19.6320064 C32.6484865,20.0226507 32.4912044,20.4326424 32.3806014,20.8603453 C32.3371774,21.0182532 32.2896672,21.2021235 32.2448581,21.3984415 C32.1999797,21.5947595 32.1576639,21.8035252 32.1246284,22.011224 C31.9925557,22.8420901 32.1246284,25.5380482 32.1246284,25.5380482 C32.1246284,25.5380482 21.4761943,25.8771947 14.6413142,16.7888809 C14.6413142,16.7888809 11.2734966,23.3338097 17.0846926,27.9118599 C17.0846926,27.9118599 15.9028953,28.4544373 13.6706807,27.0979938 C13.6706807,27.0979938 12.5611875,32.082906 19.7591807,35.5079436 L16.2593598,35.5079436 C16.2593598,35.5079436 17.481049,41.0355043 23.9857821,41.5441528 C23.9857821,41.5441528 20.915076,45.7830566 12,45.1386926 C12,45.1386926 20.0434797,50.8827721 30.4060912,48.2169018 C30.591076,48.1692449 30.7768919,48.1189562 30.9634003,48.0659645 C32.6035389,47.546362 34.2544814,46.935998 35.7539595,46.1174373 C35.8847855,46.0478014 36.0156807,45.9764583 36.1467145,45.9034792 C36.5398851,45.6849687 36.9346486,45.4523035 37.3309358,45.20527 C37.3309358,45.20527 48.2264088,39.1421026 49.1178125,23.4759269 C49.1178125,23.4759269 51.4076486,22.0959394 52.8768615,19.4509102 C52.8768615,19.4509813 48.7495743,20.4343495 48.4359105,20.332634 Z" id="Combined-Shape"></path>
                </g>
            </g>
        </g>
    </g>
</svg>