<?xml version="1.0" ?><svg height="256" viewBox="0 0 256 256" width="256" xmlns="http://www.w3.org/2000/svg"><defs><style>
      .cls-1 {
        fill: #909090;
      }

      .cls-2 {
        fill: #fff;
      }

      .cls-3 {
        fill: #fca839;
      }

      .cls-3, .cls-4, .cls-5 {
        fill-rule: evenodd;
      }

      .cls-4 {
        fill: #60afdd;
      }

      .cls-5 {
        fill: #00bcad;
      }
    </style></defs><g data-name="nem nemcoin" id="nem_nemcoin"><g data-name="nem nem" id="nem_nem"><circle class="cls-1" cx="128" cy="128" data-name="Эллипс 16" id="Эллипс_16" r="128"/><circle class="cls-2" cx="128" cy="128" data-name="Эллипс 16 копия" id="Эллипс_16_копия" r="118"/><g data-name="Группа 1" id="Группа_1"><path class="cls-3" d="M885,1327s-63.857-13.14-115,21c0,26.86,4.823,63.04,42,64,16.441,0.43,27.876-7.93,34-18,6.221-10.23,7-22.2,7-24C853,1366.43,853.857,1339,885,1327Z" data-name="Фигура 12" id="Фигура_12" transform="translate(-728 -1269)"/><path class="cls-4" d="M903.375,1456.65s43.268-48.77,39.218-110.13c-23.27-13.41-57.028-27.29-76.422,4.44-8.576,14.03-7.047,28.11-1.378,38.45,5.759,10.49,15.741,17.14,17.3,18.04C885.188,1409.24,908.525,1423.67,903.375,1456.65Z" data-name="Фигура 12 копия" id="Фигура_12_копия" transform="translate(-728 -1269)"/><path class="cls-5" d="M780.6,1408.1s21.895,61.4,77.617,87.41c22.959-13.93,51.388-36.83,32.922-69.11-8.167-14.27-21.24-19.72-33.028-19.72-11.974-.01-22.61,5.53-24.149,6.46C830.913,1415,807.02,1428.49,780.6,1408.1Z" data-name="Фигура 12 копия 2" id="Фигура_12_копия_2" transform="translate(-728 -1269)"/></g></g></g></svg>