<?xml version="1.0" ?><!DOCTYPE svg  PUBLIC '-//W3C//DTD SVG 1.1//EN'  'http://www.w3.org/Graphics/SVG/1.1/DTD/svg11.dtd'><svg enable-background="new 0 0 1024 1024" height="1024px" id="Layer_1" version="1.1" viewBox="0 0 1024 1024" width="1024px" xml:space="preserve" xmlns="http://www.w3.org/2000/svg" xmlns:xlink="http://www.w3.org/1999/xlink"><g id="Background"><path d="M983.766,312.727c-25.785-60.972-62.694-115.728-109.705-162.744   C827.05,102.966,772.299,66.049,711.329,40.257C648.194,13.548,581.14,0.004,512,0c-69.104,0-136.155,13.54-199.289,40.243   c-60.969,25.787-115.721,62.699-162.735,109.71c-47.014,47.011-83.929,101.761-109.72,162.728   C13.548,375.814,0.004,442.865,0,511.97c-0.004,69.109,13.533,136.165,40.234,199.304   c25.785,60.973,62.696,115.728,109.707,162.743c47.011,47.018,101.762,83.935,162.732,109.727   c63.136,26.708,130.19,40.253,199.323,40.257h0.009c69.104,0,136.153-13.54,199.288-40.243   c60.969-25.787,115.72-62.699,162.733-109.709c47.013-47.01,83.929-101.76,109.72-162.728   c26.708-63.134,40.251-130.186,40.255-199.29C1024.004,442.921,1010.467,375.866,983.766,312.727z M512.004,976.328h-0.03   c-124.026-0.007-240.627-48.313-328.323-136.019C95.957,752.604,47.665,635.999,47.672,511.973   c0.015-256.016,208.312-464.3,464.356-464.3c124.026,0.007,240.626,48.312,328.32,136.017   c87.695,87.706,135.986,204.311,135.979,328.337C976.313,768.043,768.018,976.328,512.004,976.328z" fill="#262626"/></g><g id="GoogleDrive"><polygon fill="#262626" points="834.624,613.429 834.631,613.416 834.616,613.416 600.894,208.598 423.107,208.597 656.83,613.416    367.17,613.416 511.999,362.564 423.105,208.597 189.373,613.436 278.266,767.403 278.277,767.384 745.737,767.384 834.62,613.436    834.627,613.436  "/><linearGradient gradientTransform="matrix(1 0 0 -1 214.3398 1116.0391)" gradientUnits="userSpaceOnUse" id="SVGID_1_" x1="92.0435" x2="213.4736" y1="441.8892" y2="320.459"><stop offset="0" style="stop-color:#000000"/><stop offset="0.3445" style="stop-color:#090909;stop-opacity:0.8278"/><stop offset="0.9047" style="stop-color:#212121;stop-opacity:0.5477"/><stop offset="1" style="stop-color:#262626;stop-opacity:0.5"/></linearGradient><polygon fill="url(#SVGID_1_)" points="278.205,767.403 367.098,613.436 455.99,767.403  "/><linearGradient gradientTransform="matrix(1 0 0 -1 214.3398 1116.0391)" gradientUnits="userSpaceOnUse" id="SVGID_2_" x1="172.415" x2="304.6076" y1="871.0898" y2="738.8971"><stop offset="0" style="stop-color:#000000"/><stop offset="0.3445" style="stop-color:#090909;stop-opacity:0.8278"/><stop offset="0.9047" style="stop-color:#212121;stop-opacity:0.5477"/><stop offset="1" style="stop-color:#262626;stop-opacity:0.5"/></linearGradient><polygon fill="url(#SVGID_2_)" points="423.107,208.597 482.595,413.495 511.999,362.563  "/></g></svg>