<?xml version="1.0" ?><!DOCTYPE svg  PUBLIC '-//W3C//DTD SVG 1.1//EN'  'http://www.w3.org/Graphics/SVG/1.1/DTD/svg11.dtd'><svg enable-background="new 0 0 1024 1024" height="1024px" id="Layer_1" version="1.1" viewBox="0 0 1024 1024" width="1024px" xml:space="preserve" xmlns="http://www.w3.org/2000/svg" xmlns:xlink="http://www.w3.org/1999/xlink"><g id="Background"><path d="M983.766,312.727c-25.785-60.972-62.694-115.728-109.705-162.744   C827.05,102.966,772.299,66.049,711.329,40.257C648.194,13.548,581.14,0.004,512,0c-69.104,0-136.155,13.54-199.289,40.243   c-60.969,25.787-115.721,62.699-162.735,109.71c-47.014,47.011-83.929,101.761-109.72,162.728   C13.548,375.814,0.004,442.865,0,511.97c-0.004,69.109,13.533,136.165,40.234,199.304   c25.785,60.973,62.696,115.728,109.707,162.743c47.011,47.018,101.762,83.935,162.732,109.727   c63.136,26.708,130.19,40.253,199.323,40.257h0.009c69.104,0,136.153-13.54,199.288-40.243   c60.969-25.787,115.72-62.699,162.733-109.709c47.013-47.01,83.929-101.76,109.72-162.728   c26.708-63.134,40.251-130.186,40.255-199.29C1024.004,442.921,1010.467,375.866,983.766,312.727z M512.004,976.328h-0.03   c-124.026-0.007-240.627-48.313-328.323-136.019C95.957,752.604,47.665,635.999,47.672,511.973   c0.015-256.016,208.312-464.3,464.356-464.3c124.026,0.007,240.626,48.312,328.32,136.017   c87.695,87.706,135.986,204.311,135.979,328.337C976.313,768.043,768.018,976.328,512.004,976.328z" fill="#262626"/></g><g id="Skype"><path d="M646.232,424.643c9.031-6.705,15.575-16.729,16.554-28.289c0.904-10.679-4.417-22.072-11.23-30.105   c-10.566-12.46-23.794-23.661-37.343-32.738c-7.881-5.279-16.366-10.018-25.03-13.894c-21.971-9.83-46.13-14.741-70.141-15.404   c-13.255-0.366-27.028,0.054-40.182,1.845c-36.2,4.93-72.772,15.128-99.144,41.81c-6.608,6.687-12.719,14.245-17.938,22.069   c-6.23,9.341-11.017,19.515-13.747,30.44c-6.712,26.851-3.015,61.454,12.886,84.299c18.979,27.268,51.695,41.711,82.715,50.304   c19.338,5.355,39.065,7.941,58.689,11.853c11.742,2.339,23.443,4.937,34.925,8.353c14.3,4.256,31.374,9.756,40.38,22.472   c15.67,22.125,7.164,53.749-15.249,67.131c-22.643,13.52-53.035,16.654-78.132,8.983c-13.42-4.103-26.328-10.066-37.063-19.241   c-12.254-10.474-19.416-25.058-30.949-36.128c-12.029-11.551-34.205-19.294-50.196-11.925   c-26.491,12.21-25.931,52.458-10.547,73.163c6.021,8.106,14.042,16.583,22.042,22.736c44.917,34.551,107.156,40.284,161.899,36.54   c16.079-1.1,33.264-3.353,48.6-8.54c34-11.5,67-32.5,81.5-69s10-66.5,3.5-86.001c-14.568-43.701-60.102-62.443-100.634-73.081   c-9.73-2.554-19.522-4.845-29.367-6.918c-18.573-3.91-37.016-8.268-55.672-11.763c-19.588-3.669-48.646-8.799-53.223-32.369   c-4.389-22.617,10.231-45.247,30.63-53.082c22.804-8.758,50.3-7.755,72.756,1.497c11.946,4.922,26.255,12.463,35.673,21.443   c15.8,15.065,29.681,37.02,54.912,31.637C634.308,431.416,641.124,428.434,646.232,424.643z" fill="#262626"/><path d="M646.292,826.969c-0.003,0,0,0-0.003,0c-49.877-0.001-85.875-23.209-91.624-27.146   c-0.417-0.08-1.284-0.2-2.744-0.2c-4.929,0-11.606,1.318-16.972,2.377c-2.939,0.58-5.715,1.128-8.239,1.486   c-12.945,1.838-28.305,3.718-44.076,3.718c-11.157,0-21.372-0.917-31.228-2.803c-41.758-7.992-82.572-25.877-121.309-53.16   c-35.521-25.02-65.409-60.883-86.432-103.715c-19.441-39.609-30.394-86.229-30.84-131.272c-0.184-18.485,0.045-38.142,4.92-57.359   l0.123-0.481c0.204-0.802,0.46-1.811,0.613-2.521c-0.672-1.459-1.526-3.055-2.422-4.728c-1.279-2.388-2.728-5.094-4.019-8.088   c-5.513-12.79-9.494-25.619-11.833-38.131c-4.777-25.565-2.267-54.422,7.46-85.768c8.722-28.105,27.152-57.449,46.953-74.757   c17.134-14.978,34.765-26.203,52.4-33.365c22.752-9.24,45.888-13.925,68.764-13.925c5.595,0,11.256,0.283,16.826,0.841   c10.68,1.069,21.132,2.253,31.591,4.951c12.165,3.136,23.182,8.042,33.836,12.787c1.94,0.864,3.879,1.728,5.819,2.577   c1.367-0.077,3.678-0.652,5.732-1.164c1.555-0.387,3.163-0.788,4.895-1.139c8.052-1.635,16.58-2.513,26.07-2.684   c15.813-0.283,31.278,1.584,46.163,3.389l2.101,0.254c38.947,4.709,74.503,15.768,105.675,32.869   c21.079,11.563,41.688,26.586,59.604,43.443c30.842,29.021,57.258,67.949,74.383,109.615c4.165,10.133,7.679,21.056,10.442,32.467   c11.004,45.423,12.496,84.242,4.561,118.677c-0.214,0.924-0.469,1.902-0.734,2.916c-0.119,0.452-0.262,0.994-0.396,1.528   c4.534,6.122,8.495,12.791,11.803,19.876c11.592,24.838,15.511,55.665,11.334,89.148c-5.174,41.484-27.303,82.08-60.708,111.375   C728.374,810.779,688.505,826.969,646.292,826.969z M551.921,764.622c9.195,0,16.52,2.038,22.389,6.23   c0.306,0.218,30.279,21.115,71.979,21.115c33.476,0,65.579-13.266,95.415-39.43c27.047-23.718,44.926-56.3,49.054-89.391   c2.343-18.787,2.802-46.185-8.32-70.016c-2.716-5.82-6.037-11.205-9.872-16.007c-8.521-10.665-5.24-23.123-3.665-29.109   c0.171-0.648,0.339-1.274,0.476-1.866c6.687-29.01,5.224-62.563-4.47-102.574c-2.348-9.688-5.309-18.908-8.799-27.402   c-15.271-37.152-38.708-71.753-65.996-97.431c-15.792-14.86-33.932-28.086-52.454-38.248   c-27.241-14.944-58.545-24.637-93.042-28.807l-2.111-0.256c-14.354-1.74-27.841-3.383-41.32-3.14   c-7.339,0.132-13.793,0.783-19.735,1.989c-0.981,0.2-2.158,0.492-3.402,0.802c-3.955,0.984-8.877,2.21-14.401,2.21   c-4.688,0-9.122-0.896-13.179-2.666c-2.222-0.969-4.442-1.958-6.666-2.948c-9.771-4.352-19.001-8.461-28.337-10.869   c-8.079-2.083-16.708-3.052-26.34-4.016c-4.415-0.442-8.902-0.667-13.337-0.667c-18.34,0-37.045,3.82-55.595,11.353   c-14.025,5.695-28.336,14.876-42.536,27.289c-15.036,13.143-29.728,36.764-36.56,58.779c-8.022,25.852-10.204,49.056-6.483,68.966   c1.862,9.964,5.082,20.295,9.569,30.704c0.704,1.633,1.689,3.474,2.732,5.421c1.286,2.401,2.744,5.123,4.04,8.138   c4.403,10.233,2.341,18.341,0.836,24.261l-0.117,0.46c-3.844,15.153-4.009,32.223-3.848,48.409   c0.396,39.92,10.078,81.187,27.261,116.197c18.443,37.574,44.437,68.876,75.167,90.522c34.645,24.401,70.891,40.348,107.732,47.398   c7.662,1.467,15.725,2.18,24.648,2.18c13.591,0,27.42-1.704,39.155-3.371c1.593-0.227,3.92-0.687,6.383-1.172   C535.032,766.307,543.571,764.622,551.921,764.622z" fill="#262626"/></g></svg>