<?xml version="1.0" ?><!DOCTYPE svg  PUBLIC '-//W3C//DTD SVG 1.1//EN'  'http://www.w3.org/Graphics/SVG/1.1/DTD/svg11.dtd'><svg enable-background="new 0 0 1024 1024" height="1024px" id="Layer_1" version="1.1" viewBox="0 0 1024 1024" width="1024px" xml:space="preserve" xmlns="http://www.w3.org/2000/svg" xmlns:xlink="http://www.w3.org/1999/xlink"><g id="Background"><path d="M983.766,312.727c-25.785-60.972-62.694-115.728-109.705-162.744   C827.05,102.966,772.299,66.049,711.329,40.257C648.194,13.548,581.14,0.004,512,0c-69.104,0-136.155,13.54-199.289,40.243   c-60.969,25.787-115.721,62.699-162.735,109.71c-47.014,47.011-83.929,101.761-109.72,162.728   C13.548,375.814,0.004,442.865,0,511.97c-0.004,69.109,13.533,136.165,40.234,199.304   c25.785,60.973,62.696,115.728,109.707,162.743c47.011,47.018,101.762,83.935,162.732,109.727   c63.136,26.708,130.19,40.253,199.323,40.257h0.009c69.104,0,136.153-13.54,199.288-40.243   c60.969-25.787,115.72-62.699,162.733-109.709c47.013-47.01,83.929-101.76,109.72-162.728   c26.708-63.134,40.251-130.186,40.255-199.29C1024.004,442.921,1010.467,375.866,983.766,312.727z M512.004,976.328h-0.03   c-124.026-0.007-240.627-48.313-328.323-136.019C95.957,752.604,47.665,635.999,47.672,511.973   c0.015-256.016,208.312-464.3,464.356-464.3c124.026,0.007,240.626,48.312,328.32,136.017   c87.695,87.706,135.986,204.311,135.979,328.337C976.313,768.043,768.018,976.328,512.004,976.328z" fill="#262626"/></g><g id="Web"><path d="M512,242.436c-148.877,0-269.564,120.688-269.564,269.564S363.125,781.563,512,781.563   c148.876,0,269.564-120.688,269.564-269.563C781.566,363.123,660.879,242.436,512,242.436z M715.145,398.703   c9.572,17.104,16.904,35.334,21.854,54.32H646.37c-3.354-18.445-8.275-36.635-14.801-54.32H715.145L715.145,398.703z    M621.49,550.746l-25.389-77.381l16.197-7.161l18.059,60.253l13.98-38.475h17.824l13.982,38.475l18.057-60.253l16.197,7.161   l-25.387,77.381l-15.945,7.049l-15.816-52.792l-15.818,52.792L621.49,550.746z M623.387,570.976   c-3.611,18.416-8.926,36.537-15.965,54.076h-84.135v-54.076H623.387z M676.41,347.591c8.938,8.939,17.049,18.489,24.313,28.539   h-78.479c-15.443-33.661-36.961-64.997-64.551-92.179C602.383,292.809,643.469,314.649,676.41,347.591z M523.287,283.297   c31.76,26.41,56.371,58.153,73.834,92.834h-73.834V283.297z M523.287,398.703h84.037c7.088,17.614,12.434,35.819,16.063,54.32   h-100.1V398.703z M500.714,283.581v92.55H427.22C444.622,341.573,469.122,309.933,500.714,283.581z M400.954,453.022   c3.632-18.503,8.977-36.708,16.063-54.32h83.696v54.32H400.954z M427.896,473.365l-25.386,77.381l-15.944,7.049l-15.817-52.792   l-15.817,52.792l-15.943-7.049L313.6,473.365l16.196-7.161l18.054,60.253l13.984-38.475h17.824l13.984,38.475l18.055-60.253   L427.896,473.365z M347.591,347.591c33.045-33.043,74.283-54.912,119.134-63.718c-27.63,27.201-49.172,58.563-64.629,92.257   h-78.816C330.544,366.081,338.653,356.531,347.591,347.591z M308.858,398.703h83.917c-6.526,17.685-11.449,35.875-14.803,54.32   h-90.967C291.953,434.037,299.285,415.807,308.858,398.703z M308.72,625.052c-9.505-17.034-16.789-35.18-21.712-54.076h90.967   c3.334,18.36,8.229,36.469,14.707,54.076H308.72z M347.591,676.408c-9.014-9.016-17.181-18.646-24.493-28.784h78.889   c15.464,33.786,37.044,65.235,64.737,92.501C421.875,731.321,380.635,709.452,347.591,676.408z M500.714,740.42   c-31.669-26.416-56.21-58.145-73.619-92.797h73.619V740.42z M500.714,625.052h-83.797c-7.038-17.539-12.351-35.66-15.965-54.076   h99.762V625.052z M511.871,505.004l-15.819,52.792l-15.943-7.049l-25.385-77.381l16.197-7.161l18.054,60.253l13.983-38.475h17.826   l13.98,38.475l18.057-60.253l16.195,7.161l-25.385,77.381l-15.944,7.049L511.871,505.004z M523.287,740.704v-93.08h73.959   C579.775,682.4,555.123,714.231,523.287,740.704z M676.41,676.408c-32.939,32.939-74.025,54.781-118.715,63.64   c27.654-27.248,49.213-58.672,64.662-92.425h78.547C693.59,657.764,685.424,667.396,676.41,676.408z M715.281,625.052H631.66   c6.479-17.607,11.373-35.716,14.709-54.076h90.625C732.072,589.872,724.787,608.018,715.281,625.052z" fill="#262626" id="Website_1_"/></g></svg>